#N canvas 156 389 718 487 12;
#X obj 146 271 unpack f f f;
#X obj 146 346 outlet;
#X obj 146 246 pack f f 1;
#X obj 169 193 f \$1;
#X obj 146 146 t f b b;
#X msg 213 192 1;
#X obj 146 120 inlet ligne-number;
#X text 144 68 \$1 = parametre a recuperer;
#X text 144 48 inlet = numero de ligne ds le tableau;
#X obj 146 321 text get \$2-PARAMS-\$3;
#X connect 0 0 9 0;
#X connect 0 1 9 1;
#X connect 0 2 9 2;
#X connect 2 0 0 0;
#X connect 3 0 2 1;
#X connect 4 0 2 0;
#X connect 4 1 3 0;
#X connect 4 2 5 0;
#X connect 5 0 2 2;
#X connect 6 0 4 0;
#X connect 9 0 1 0;
