#N canvas 156 389 718 487 12;
#X obj 468 275 unpack f f f;
#X obj 523 143 inlet lignenb;
#X obj 505 177 f;
#X obj 420 136 inlet value;
#X obj 420 161 t f b;
#X obj 468 250 pack f f \$1;
#X text 144 48 inlet 1 = valeur a ecrire;
#X text 146 65 inlet 2 = id ligne dans le tableau;
#X text 146 85 \$1 emplacement data;
#X obj 468 325 text set \$2-PARAMS-\$3;
#X connect 0 0 9 0;
#X connect 0 1 9 1;
#X connect 0 2 9 2;
#X connect 1 0 2 1;
#X connect 2 0 5 1;
#X connect 3 0 4 0;
#X connect 4 0 5 0;
#X connect 4 1 2 0;
#X connect 5 0 0 0;
