#N canvas 1 58 623 630 10;
#X text 87 19 Receive messages;
#X obj 89 40 inlet;
#X obj 87 448 t b f;
#X obj 87 307 spigot 1;
#X obj 87 332 t b b b;
#X msg 150 314 0;
#X msg 150 289 1;
#X obj 87 208 delay 100;
#X obj 87 424 f 0;
#X obj 168 129 r \$0-delay-sync;
#X obj 264 365 int;
#X obj 264 386 max 0;
#X obj 264 406 min 255;
#X obj 168 190 + 0;
#X obj 175 169 t b f;
#X text 26 304 debounce;
#X text 48 380 pwm;
#X text 26 205 delay;
#X obj 15 245 r \$0-direct;
#X obj 150 266 delay 120;
#X obj 87 130 r \$0-bang;
#X obj 133 450 r \$0-id;
#X obj 87 567 outlet;
#X obj 364 281 / 100;
#X obj 364 241 max 0;
#X obj 364 261 min 100;
#X obj 364 220 r \$0-velocity;
#X obj 264 317 * 1;
#X text 40 539 delay;
#X text 25 189 synchro;
#X obj 264 273 -;
#X obj 264 343 +;
#X obj 282 249 t b f f;
#X obj 264 165 r \$0-pwm-max;
#X obj 282 186 r \$0-pwm;
#X obj 477 485 int;
#X obj 477 506 max 0;
#X obj 477 437 * 1;
#X obj 477 394 -;
#X obj 477 463 +;
#X obj 495 370 t b f f;
#X obj 477 526 min 120;
#X obj 477 279 r \$0-delay-on-max;
#X obj 495 304 r \$0-delay-on, f 14;
#X obj 364 304 expr -$f1 + 1;
#X obj 264 294 t b f;
#X obj 477 416 t b f;
#X obj 495 348 min;
#X obj 510 327 - 1;
#X obj 282 229 min;
#X obj 297 209 - 1;
#X obj 175 149 r \$0-delay;
#X obj 133 471 t f f;
#X obj 133 494 div 10;
#X obj 177 494 % 10;
#X obj 87 544 pack f f f f;
#X text 193 451 Convert id to chimereID armID;
#X text 83 102 Trigger data to Arduino (chimereID armID pwm delay)
;
#N canvas 138 251 706 410 -MSG- 1;
#X obj 335 340 s \$0-direct;
#X obj 70 329 t b f;
#X obj 29 37 inlet;
#X obj 29 351 s \$0-bang;
#X obj 97 351 s \$0-velocity;
#X obj 371 320 s \$0-velocity;
#X obj 407 300 s \$0-pwm;
#X obj 444 280 s \$0-pwm-max;
#X obj 480 260 s \$0-delay-on;
#X obj 516 240 s \$0-delay-on-max;
#X obj 553 220 s \$0-delay-sync;
#X obj 625 180 s \$0-id;
#X obj 589 200 s \$0-delay;
#X obj 130 289 s \$0-pwm;
#X obj 150 267 s \$0-pwm-max;
#X obj 169 246 s \$0-delay-on;
#X obj 189 225 s \$0-delay-on-max;
#X obj 208 205 s \$0-delay-sync;
#X obj 111 309 s \$0-id;
#X obj 29 129 route bang float list;
#X obj 335 147 route direct velocity pwm pwm-max delay-on delay-on-max
delay-sync delay id;
#X obj 111 154 unpack f f f f f f f;
#X obj 228 185 s \$0-delay;
#X obj 118 44 r DEBUG;
#X obj 85 95 print ARM_\$1;
#X obj 85 68 spigot;
#X connect 1 0 3 0;
#X connect 1 1 4 0;
#X connect 2 0 19 0;
#X connect 2 0 25 0;
#X connect 19 0 3 0;
#X connect 19 1 1 0;
#X connect 19 2 21 0;
#X connect 19 3 20 0;
#X connect 20 0 0 0;
#X connect 20 1 5 0;
#X connect 20 2 6 0;
#X connect 20 3 7 0;
#X connect 20 4 8 0;
#X connect 20 5 9 0;
#X connect 20 6 10 0;
#X connect 20 7 12 0;
#X connect 20 8 11 0;
#X connect 21 0 18 0;
#X connect 21 1 13 0;
#X connect 21 2 14 0;
#X connect 21 3 15 0;
#X connect 21 4 16 0;
#X connect 21 5 17 0;
#X connect 21 6 22 0;
#X connect 23 0 25 1;
#X connect 25 0 24 0;
#X restore 89 62 pd -MSG-;
#X obj 87 511 f;
#X connect 1 0 58 0;
#X connect 2 0 59 0;
#X connect 2 1 55 2;
#X connect 3 0 4 0;
#X connect 4 0 8 0;
#X connect 4 1 19 0;
#X connect 4 2 5 0;
#X connect 5 0 3 1;
#X connect 6 0 3 1;
#X connect 7 0 3 0;
#X connect 8 0 2 0;
#X connect 9 0 13 0;
#X connect 10 0 11 0;
#X connect 11 0 12 0;
#X connect 12 0 8 1;
#X connect 13 0 7 1;
#X connect 14 0 13 0;
#X connect 14 1 13 1;
#X connect 18 0 3 0;
#X connect 19 0 6 0;
#X connect 20 0 7 0;
#X connect 21 0 52 0;
#X connect 23 0 27 0;
#X connect 23 0 44 0;
#X connect 24 0 25 0;
#X connect 25 0 23 0;
#X connect 26 0 24 0;
#X connect 27 0 31 0;
#X connect 30 0 45 0;
#X connect 31 0 10 0;
#X connect 32 0 30 0;
#X connect 32 1 30 1;
#X connect 32 2 31 1;
#X connect 33 0 30 0;
#X connect 33 0 50 0;
#X connect 34 0 49 0;
#X connect 35 0 36 0;
#X connect 36 0 41 0;
#X connect 37 0 39 0;
#X connect 38 0 46 0;
#X connect 39 0 35 0;
#X connect 40 0 38 0;
#X connect 40 1 38 1;
#X connect 40 2 39 1;
#X connect 41 0 55 3;
#X connect 42 0 38 0;
#X connect 42 0 48 0;
#X connect 43 0 47 0;
#X connect 44 0 37 0;
#X connect 45 0 27 0;
#X connect 45 1 27 1;
#X connect 46 0 37 0;
#X connect 46 1 37 1;
#X connect 47 0 40 0;
#X connect 48 0 47 1;
#X connect 49 0 32 0;
#X connect 50 0 49 1;
#X connect 51 0 14 0;
#X connect 52 0 53 0;
#X connect 52 1 54 0;
#X connect 53 0 59 1;
#X connect 54 0 55 1;
#X connect 55 0 22 0;
#X connect 59 0 55 0;
