#N canvas 257 96 503 448 10;
#X obj 42 318 list prepend send;
#X obj 42 339 list trim;
#X obj 75 256 tgl 15 0 empty empty empty 17 7 0 10 -262144 -1 -1 1
1;
#X obj 42 370 netsend -u -b;
#X obj 42 276 spigot;
#X obj 198 210 sel 0 1;
#X msg 198 337 disconnect;
#X obj 58 187 spigot;
#X obj 42 141 inlet, f 6;
#X obj 91 166 r DEBUG;
#X obj 42 297 oscformat -f iii arm;
#X obj 325 270 + 9000;
#X msg 280 336 connect \$1 \$2;
#X obj 280 314 pack s f;
#X obj 280 228 f \$1;
#X obj 280 249 + 101;
#X obj 280 293 makefilename 192.168.0.%d;
#X obj 198 189 r CONNECT;
#X text 39 106 Data input \; <chimereID> <id> <pwm> <delay>;
#X text 196 169 Connect to childrens;
#X obj 280 270 t f f;
#X text 375 336 IP and Port;
#X text 38 21 child-osc \; ------------ \; Send OSC messages to Arduino/Ethernet
Shield (child-osc.ino firmware and static IP) \; OSC message : "/arm
id pwm delay";
#X obj 58 210 print CHILD_OSC_\$1;
#X msg 280 376 connect localhost 9101;
#X connect 0 0 1 0;
#X connect 1 0 3 0;
#X connect 2 0 4 1;
#X connect 3 0 2 0;
#X connect 4 0 10 0;
#X connect 5 0 6 0;
#X connect 5 1 14 0;
#X connect 6 0 3 0;
#X connect 7 0 23 0;
#X connect 8 0 4 0;
#X connect 8 0 7 0;
#X connect 9 0 7 1;
#X connect 10 0 0 0;
#X connect 11 0 13 1;
#X connect 12 0 3 0;
#X connect 13 0 12 0;
#X connect 14 0 15 0;
#X connect 15 0 20 0;
#X connect 16 0 13 0;
#X connect 17 0 5 0;
#X connect 20 0 16 0;
#X connect 20 1 11 0;
#X connect 24 0 3 0;
