#N canvas 228 96 584 584 10;
#X declare -path comport -path zexy -lib zexy;
#X msg 84 440 print \$1 \, 10;
#X obj 84 417 l2s;
#X msg 29 439 devices;
#X obj 84 485 comport 0 38400;
#X obj 171 511 route open;
#X msg 84 291 listen \$1;
#X obj 57 207 loadbang;
#X obj 84 313 netreceive -u -b 9101;
#X obj 84 334 oscparse;
#X obj 84 395 spigot;
#X obj 84 374 route arm;
#X obj 84 354 list trim;
#X obj 228 262 delay 1000;
#X obj 228 311 symbol \$1;
#X obj 228 283 t b b;
#X obj 228 335 select symbol;
#X obj 303 312 symbol;
#X obj 57 228 f \$2;
#X msg 228 359 symbol /dev/ttymxc3;
#X msg 228 385 devicename \$1 \, info;
#X obj 57 249 sel 0;
#X text 54 187 Receive and route OSC messages;
#X text 359 359 < Arduino name for UDOO computer;
#X obj 84 269 + 9101;
#X obj 171 537 print ARDUINO_OPEN;
#X obj 35 151 declare -path comport -path zexy -lib zexy;
#X text 355 314 Check empty \$1 symbol;
#X text 176 440 Message : id pwm delay;
#X text 32 92 Arguments \; \$1: devicename (default: /dev/ttymxc3)
\; \$2: id (default:0) gives netreceive OSC port from 9101 \;;
#X text 32 11 child-serial \; --------------- \; Receive OSC messages
and send them in Serial to an Arduino (child-serial.ino firmware) \;
OSC message : "/arm id(0-5) pwm(0-255) delay(0-100)";
#X obj 443 448 r DEBUG;
#X obj 410 472 spigot;
#X obj 410 494 print CHILD-SERIAL;
#X msg 21 388 0 30 30;
#X text 17 368 Test;
#X connect 0 0 3 0;
#X connect 1 0 0 0;
#X connect 2 0 3 0;
#X connect 3 1 4 0;
#X connect 4 0 9 1;
#X connect 4 0 24 0;
#X connect 5 0 7 0;
#X connect 6 0 17 0;
#X connect 6 0 12 0;
#X connect 7 0 8 0;
#X connect 8 0 11 0;
#X connect 9 0 1 0;
#X connect 10 0 9 0;
#X connect 11 0 10 0;
#X connect 11 0 31 0;
#X connect 12 0 14 0;
#X connect 13 0 15 0;
#X connect 14 0 13 0;
#X connect 14 1 16 0;
#X connect 15 0 18 0;
#X connect 15 1 19 0;
#X connect 16 0 15 1;
#X connect 17 0 20 0;
#X connect 18 0 19 0;
#X connect 19 0 3 0;
#X connect 20 1 23 0;
#X connect 23 0 5 0;
#X connect 30 0 31 1;
#X connect 31 0 32 0;
#X connect 33 0 1 0;
