#N canvas 275 96 486 320 10;
#X declare -path iemguts;
#X text 204 290 <chimereID> <armID> <pwm> <delay>;
#N canvas 386 94 441 274 -MSG- 0;
#X obj 39 201 canvasdelete 2;
#X msg 135 172 all velocity \$1;
#X obj 135 201 outlet;
#X obj 39 29 inlet;
#X obj 95 31 r DEBUG;
#X obj 62 55 spigot;
#X obj 62 82 print CHIMERES;
#X obj 39 107 route delete velocity;
#X obj 191 109 initbang;
#X msg 191 135 100;
#X connect 1 0 2 0;
#X connect 3 0 5 0;
#X connect 3 0 7 0;
#X connect 4 0 5 1;
#X connect 5 0 6 0;
#X connect 7 0 0 0;
#X connect 7 1 1 0;
#X connect 7 2 2 0;
#X connect 8 0 9 0;
#X connect 9 0 1 0;
#X restore 30 153 pd -MSG-;
#X text 206 276 Send trigger data through OSC;
#X obj 30 209 list split 1;
#X text 115 208 Skip clone automatic ID;
#X obj 30 125 r CHIMERES;
#X obj 30 181 clone arm \$3;
#X obj 273 47 declare -path iemguts;
#X text 27 23 chimeres \; -------- \; \$1: number of chimeres \; \$2:
number of arms per chimere \; \$3: number of arms (total);
#X obj 142 180 settings \$1 \$2;
#X text 116 179 <<;
#X text 240 180 Load/write settings;
#X obj 64 277 clone child-osc \$1;
#X msg 115 251 0 0 30 30;
#X text 187 249 Test;
#X connect 1 0 6 0;
#X connect 3 1 12 0;
#X connect 5 0 1 0;
#X connect 6 0 3 0;
#X connect 13 0 12 0;
