#N canvas 332 58 595 489 10;
#X declare -path zexy -lib zexy;
#X obj 109 119 sel 0;
#X obj 43 139 time, f 9;
#X msg 109 140 10000;
#X text 151 118 Synchro < 100 ms;
#X obj 183 253 +;
#X floatatom 148 253 5 0 0 0 - - -;
#X obj 183 312 spigot;
#X obj 43 361 spigot;
#X obj 43 186 pack f f;
#X text 98 186 hours minutes;
#X obj 43 213 t a a;
#X obj 43 164 * 100;
#X msg 43 241 \$2;
#X obj 43 118 metro 100;
#X obj 43 264 change -1;
#X obj 43 287 sel 0 15 30 45;
#X msg 43 315 0;
#X msg 73 315 1;
#X msg 103 315 2;
#X msg 133 315 3;
#X text 182 229 First \, check time (if enabled);
#X obj 183 276 expr if($f2 < $f3 \, ($f1 >= $f2) && ($f1 <= $f3) \,
($f1 >= $f2) || ($f1 <= $f3)), f 48;
#X obj 43 71 r CLOCK;
#X obj 325 254 r CLOCK_START;
#X obj 43 427 s CLOCK_QUARTER;
#X obj 468 255 r CLOCK_END;
#X text 42 12 clock \; ----- \; Trigger events with time \, every quarter
(0 \, 1 \, 2 \, 3) \;;
#X obj 227 312 r CLOCK_AUTO;
#X obj 43 95 t f f;
#X obj 183 356 print ***CLOCK_OPENED***;
#X obj 58 402 print ***CLOCK_QUARTER***;
#X obj 183 333 change -1;
#X text 76 241 minutes;
#X obj 361 78 declare -path zexy -lib zexy;
#X connect 0 0 2 0;
#X connect 1 0 11 0;
#X connect 1 1 8 1;
#X connect 1 2 0 0;
#X connect 2 0 13 1;
#X connect 4 0 5 0;
#X connect 4 0 21 0;
#X connect 6 0 31 0;
#X connect 7 0 24 0;
#X connect 7 0 30 0;
#X connect 8 0 10 0;
#X connect 10 0 12 0;
#X connect 10 1 4 0;
#X connect 11 0 8 0;
#X connect 12 0 14 0;
#X connect 13 0 1 0;
#X connect 14 0 15 0;
#X connect 15 0 16 0;
#X connect 15 1 17 0;
#X connect 15 2 18 0;
#X connect 15 3 19 0;
#X connect 16 0 7 0;
#X connect 17 0 7 0;
#X connect 18 0 7 0;
#X connect 19 0 7 0;
#X connect 21 0 6 0;
#X connect 22 0 28 0;
#X connect 23 0 21 1;
#X connect 25 0 21 2;
#X connect 27 0 6 1;
#X connect 28 0 13 0;
#X connect 28 1 7 1;
#X connect 31 0 29 0;
#X connect 31 0 7 1;
