#N canvas 2134 441 889 308 12;
#X text 89 18 touchOSC;
#X obj 81 195 s TOGGLE1;
#X obj 164 195 s TOGGLE2;
#X obj 248 195 s TOGGLE3;
#X obj 331 195 s TOGGLE4;
#X obj 415 196 s FADER1;
#X obj 499 196 s FADER2;
#X obj 582 196 s FADER3;
#X obj 666 196 s FADER4;
#X obj 81 131 route /1/toggle1 /1/toggle2 /1/toggle3 /1/toggle4 /1/fader1
/1/fader2 /1/fader3 /1/fader4, f 96;
#X obj 83 74 osc-in 10000;
#X connect 9 0 1 0;
#X connect 9 1 2 0;
#X connect 9 2 3 0;
#X connect 9 3 4 0;
#X connect 9 4 5 0;
#X connect 9 5 6 0;
#X connect 9 6 7 0;
#X connect 9 7 8 0;
#X connect 10 0 9 0;
