#N canvas 758 155 991 767 10;
#X obj 240 91 inlet;
#X obj 187 103 tgl 10 0 \$0-on \$0-on-in empty 17 7 0 10 -261504 -1
-1 1 1;
#X obj 294 154 s \$0-port-in;
#X obj 240 123 route float port;
#X obj 109 117 cnv 2 37 2 empty empty empty 3 6 0 10 -261504 -1 0;
#X floatatom 58 30 7 0 0 1 - #0-port-in #0-port;
#X obj 442 65 f \$1;
#X obj 62 154 r \$0-port;
#X obj 442 41 initbang;
#X obj 442 92 sel 0;
#X obj 240 179 s \$0-on-in;
#X msg 62 174 listen \$1;
#X obj 395 92 inlet;
#X obj 395 124 route float port;
#X obj 395 157 s \$0-port-in;
#X text 393 74 port;
#X text 237 74 onoff;
#X msg 318 79 1;
#X text 56 11 port;
#X obj 62 215 spigot;
#X obj 111 215 r \$0-on;
#X obj 335 267 list tosymbol;
#X obj 335 292 list fromsymbol;
#X obj 336 370 list tosymbol;
#X obj 336 414 list prepend set;
#X obj 336 509 list tosymbol;
#X obj 336 434 list trim;
#X obj 362 343 list length;
#X obj 336 457 t b a;
#X obj 335 316 t a a;
#X obj 62 242 t a a;
#X obj 62 273 list split;
#X obj 61 456 oscparse;
#X obj 61 558 list prepend;
#X obj 90 304 route 0;
#X obj 61 333 route 0;
#X obj 61 364 route 0;
#X obj 61 615 outlet;
#X obj 155 617 outlet;
#X text 138 329 <(2);
#X text 438 284 <(1);
#X obj 61 393 route 0;
#X obj 336 392 route symbol;
#X obj 336 485 oscformat;
#X obj 337 535 route symbol;
#X obj 368 617 outlet;
#X obj 61 480 list trim;
#X obj 61 591 list trim;
#X obj 134 426 list prepend 47 104 105 0;
#X obj 61 504 route hi;
#X obj 61 531 t a a;
#X obj 336 558 t a a;
#X text 71 428 (3)>;
#X obj 61 194 netreceive -u -b 9000;
#X obj 155 117 cnv 2 37 2 empty empty empty 3 6 0 10 -261504 -1 0;
#X text 525 154 v1 supporte un seul float;
#X text 525 155 v1 supporte un seul float;
#X text 528 249 2) s'assurer de ne plus avoir de zero qui commence
la liste de sorte a en ajouter seulement 3 et un 47 (slash);
#X text 526 203 1) list tosymbol a la particularite d elaguer tout
ce qui viens apres un espace utile pour composer le radical du message
OSC;
#X text 526 140 v2 support adaptatif;
#X text 528 39 inlet 1 : définir le port;
#X text 526 54 outlet 1 : reception OSC complet (path + data);
#X text 524 68 outlet 2 : reception du Data (sans le path);
#X text 526 81 outlet 3 : Reception du Path (sans le Data;
#X text 548 96 outlet 2 et 3 sont synchronisé de sorte que 3 est avant
2 ce qui permet de faire des sends dynamique;
#X text 525 280 3) voudoo magic ascii string parsing pour les slashs
;
#X text 531 314 thanks to Yogidata;
#X connect 0 0 3 0;
#X connect 3 0 10 0;
#X connect 3 1 2 0;
#X connect 6 0 9 0;
#X connect 7 0 11 0;
#X connect 8 0 6 0;
#X connect 8 0 17 0;
#X connect 9 1 13 0;
#X connect 11 0 53 0;
#X connect 12 0 13 0;
#X connect 13 0 14 0;
#X connect 13 1 14 0;
#X connect 17 0 3 0;
#X connect 19 0 30 0;
#X connect 20 0 19 1;
#X connect 21 0 22 0;
#X connect 22 0 29 0;
#X connect 23 0 42 0;
#X connect 24 0 26 0;
#X connect 25 0 44 0;
#X connect 26 0 28 0;
#X connect 27 0 31 1;
#X connect 28 0 43 0;
#X connect 28 1 43 0;
#X connect 29 0 23 0;
#X connect 29 1 27 0;
#X connect 30 0 31 0;
#X connect 30 1 21 0;
#X connect 31 1 34 0;
#X connect 32 0 46 0;
#X connect 33 0 47 0;
#X connect 34 0 35 0;
#X connect 34 1 48 0;
#X connect 35 0 36 0;
#X connect 35 1 48 0;
#X connect 36 0 41 0;
#X connect 36 1 48 0;
#X connect 41 0 48 0;
#X connect 41 1 48 0;
#X connect 42 0 24 0;
#X connect 43 0 25 0;
#X connect 44 0 51 0;
#X connect 46 0 49 0;
#X connect 47 0 37 0;
#X connect 48 0 32 0;
#X connect 49 0 50 0;
#X connect 50 0 33 0;
#X connect 50 1 38 0;
#X connect 51 0 33 1;
#X connect 51 1 45 0;
#X connect 53 0 19 0;
#X coords 0 -1 1 1 100 20 1 100 100;
