#N canvas 444 766 831 183 12;
#X obj 68 19 osc-in 10000;
#X obj 72 77 s osc-tgl1;
#X obj 147 107 s osc-tgl2;
#X obj 227 76 s osc-tgl3;
#X obj 271 115 s osc-tgl4;
#X obj 434 67 route /f1 /f2 /f3 /f4, f 46;
#X obj 434 96 s osc-fdr1;
#X obj 514 116 s osc-fdr2;
#X obj 594 98 s osc-fdr3;
#X obj 673 116 s osc-fdr4;
#X obj 72 47 route /btn1 /btn2 /btn3 /btn4 /btn5, f 46;
#X obj 319 88 s osc-tgl5;
#X connect 0 0 10 0;
#X connect 5 0 6 0;
#X connect 5 1 7 0;
#X connect 5 2 8 0;
#X connect 5 3 9 0;
#X connect 10 0 1 0;
#X connect 10 1 2 0;
#X connect 10 2 3 0;
#X connect 10 3 4 0;
#X connect 10 4 11 0;
#X connect 10 5 5 0;
