#N canvas 26 201 769 478 10;
#X obj 37 147 r SETTINGS;
#X obj 429 408 s CHIMERES;
#X obj 413 430 s SETUP;
#X obj 411 163 text define \$0-settings;
#X obj 411 87 r \$0-write;
#X msg 485 140 read \$1;
#X msg 485 117 symbol ../\$1x\$2/settings.txt;
#X msg 411 138 write \$1;
#X obj 485 95 pack \$1 \$2;
#X obj 485 72 r \$0-read;
#X obj 413 312 text sequence \$0-settings;
#X msg 413 292 line 0 \, bang;
#X obj 413 379 list prepend;
#X obj 413 272 t b b;
#X obj 482 358 f;
#X obj 509 358 + 1;
#X msg 497 335 0;
#X obj 413 340 t a b;
#X obj 413 252 r \$0-dump;
#X obj 123 385 t b b;
#X obj 150 407 s \$0-read;
#X obj 123 429 s \$0-dump;
#X obj 37 169 route list;
#X text 409 39 Read/write file settings;
#X obj 244 197 s \$0-write;
#X text 33 19 settings \; -------- \; Read/write arm settings for [chimeres]
\; \$1: nb of chimeres \; \$2: nb of arms \;;
#X obj 156 315 > 0;
#X obj 190 315 > 0;
#X obj 156 338 &&;
#X obj 123 362 spigot;
#X obj 156 292 f \$1;
#X obj 190 292 f \$2;
#N canvas 1 58 538 534 -UPDATE- 0;
#X obj 69 158 list length;
#X obj 36 204 spigot;
#X obj 69 180 == 3;
#X obj 36 229 list split 1;
#X obj 36 282 route float;
#X obj 114 253 unpack s f;
#X msg 114 306 0;
#X msg 162 306 1;
#X msg 210 305 2;
#X msg 259 306 3;
#X msg 307 306 4;
#X msg 356 306 5;
#X msg 404 305 6;
#X obj 114 281 sel id pwm pwm-max delay-on delay-on-max delay-sync
delay;
#X obj 36 423 spigot;
#X obj 36 450 f;
#X obj 36 395 t b f;
#X msg 146 397 0;
#X msg 114 395 1;
#X obj 114 362 t b f;
#X obj 36 477 text set \$0-settings;
#X obj 453 379 b;
#X text 311 402 if other commands \; don't update settings;
#X text 313 105 Check length;
#X obj 198 170 list split 1;
#X obj 198 214 list;
#X obj 198 192 t b f;
#X obj 198 238 text set \$0-settings;
#X obj 198 85 t a a;
#X obj 231 106 list length;
#X obj 198 149 spigot;
#X obj 231 128 == 8;
#X obj 36 110 t a a a;
#X text 197 63 Change the whole line (8 parameters);
#X text 33 17 Update settings;
#X obj 36 58 inlet;
#X connect 0 0 2 0;
#X connect 1 0 3 0;
#X connect 2 0 1 1;
#X connect 3 0 4 0;
#X connect 3 1 5 0;
#X connect 4 0 16 0;
#X connect 5 0 13 0;
#X connect 5 1 15 1;
#X connect 6 0 19 0;
#X connect 7 0 19 0;
#X connect 8 0 19 0;
#X connect 9 0 19 0;
#X connect 10 0 19 0;
#X connect 11 0 19 0;
#X connect 12 0 19 0;
#X connect 13 0 6 0;
#X connect 13 1 7 0;
#X connect 13 2 8 0;
#X connect 13 3 9 0;
#X connect 13 4 10 0;
#X connect 13 5 11 0;
#X connect 13 6 12 0;
#X connect 13 7 21 0;
#X connect 14 0 15 0;
#X connect 15 0 20 0;
#X connect 16 0 14 0;
#X connect 16 1 20 1;
#X connect 17 0 14 1;
#X connect 18 0 14 1;
#X connect 19 0 18 0;
#X connect 19 1 20 2;
#X connect 21 0 17 0;
#X connect 24 0 26 0;
#X connect 24 1 25 1;
#X connect 25 0 27 0;
#X connect 26 0 25 0;
#X connect 26 1 27 1;
#X connect 28 0 30 0;
#X connect 28 1 29 0;
#X connect 29 0 31 0;
#X connect 30 0 24 0;
#X connect 31 0 30 1;
#X connect 32 0 1 0;
#X connect 32 1 0 0;
#X connect 32 2 28 0;
#X connect 35 0 32 0;
#X restore 37 218 pd -UPDATE-;
#X obj 123 266 t b b b;
#X text 171 363 Load only if arguments are > 0;
#X text 411 231 Dump & send lines;
#X text 502 380 < add ID first \, the number of the line;
#X obj 123 209 v REMOTE;
#X obj 123 232 sel 0;
#X obj 411 114 symbol;
#X obj 123 162 route load read write;
#X obj 180 196 s \$0-read;
#X obj 123 186 b;
#X obj 123 115 loadbang;
#X msg 123 138 read;
#X text 171 231 Load only if [settings] is not;
#X text 171 244 in [install-remote];
#X connect 0 0 22 0;
#X connect 4 0 39 0;
#X connect 5 0 3 0;
#X connect 6 0 5 0;
#X connect 6 0 39 1;
#X connect 7 0 3 0;
#X connect 8 0 6 0;
#X connect 9 0 8 0;
#X connect 10 0 17 0;
#X connect 11 0 10 0;
#X connect 12 0 1 0;
#X connect 12 0 2 0;
#X connect 13 0 11 0;
#X connect 13 1 16 0;
#X connect 14 0 15 0;
#X connect 14 0 12 1;
#X connect 15 0 14 1;
#X connect 16 0 14 1;
#X connect 17 0 12 0;
#X connect 17 1 14 0;
#X connect 18 0 13 0;
#X connect 19 0 21 0;
#X connect 19 1 20 0;
#X connect 22 0 32 0;
#X connect 22 1 40 0;
#X connect 26 0 28 0;
#X connect 27 0 28 1;
#X connect 28 0 29 1;
#X connect 29 0 19 0;
#X connect 30 0 26 0;
#X connect 31 0 27 0;
#X connect 33 0 29 0;
#X connect 33 1 30 0;
#X connect 33 2 31 0;
#X connect 37 0 38 0;
#X connect 38 0 33 0;
#X connect 39 0 7 0;
#X connect 40 0 42 0;
#X connect 40 1 41 0;
#X connect 40 2 24 0;
#X connect 42 0 37 0;
#X connect 43 0 44 0;
#X connect 44 0 40 0;
