#N canvas 301 282 449 269 10;
#X declare -path iemguts;
#X obj 53 84 bng 24 100 50 0 \$0-bang \$0-bang-in 0 8 12 0 16 -99865
-262144 -262144;
#X floatatom 111 94 3 0 100 2 vel #0-velocity-in #0-velocity;
#X obj 136 81 cnv 15 137 29 empty \$0-cnv empty 20 12 0 14 -233017
-1 0;
#X floatatom 183 94 3 0 120 2 on #0-delay-on-in #0-delay-on;
#X floatatom 136 94 3 0 255 2 pwm #0-pwm-in #0-pwm;
#X floatatom 203 94 3 0 120 2 - #0-delay-on-max-in #0-delay-on-max
;
#X floatatom 156 94 3 0 255 2 - #0-pwm-max-in #0-pwm-max;
#X floatatom 230 94 3 0 300 2 sync #0-delay-sync-in #0-delay-sync;
#X floatatom 260 94 2 0 99 2 id #0-id-in #0-id;
#X text 49 19 Arguments \; --------- \; \$1: AbsArmID;
#X floatatom 304 94 5 0 300 2 del #0-delay-in #0-delay;
#N canvas 1 58 488 315 -INIT- 0;
#X msg 208 207 label \$1;
#X obj 208 242 s \$0-bang-in;
#X obj 208 185 makefilename %d;
#X text 205 82 Bang Label;
#X obj 307 149 > 9;
#X obj 307 170 sel 0 1;
#X msg 307 191 8;
#X msg 336 192 3;
#X msg 307 213 label_pos \$1 12;
#X obj 208 127 f \$1;
#X obj 208 101 initbang;
#X text 306 128 Adjust label posX;
#X obj 29 154 spigot;
#X obj 29 105 r SYNCHRO-BANG;
#X obj 62 128 r \$0-synchro;
#X obj 29 181 s \$0-bang-in;
#X obj 207 39 declare -path iemguts;
#X text 27 83 Synchro toggle;
#X connect 0 0 1 0;
#X connect 2 0 0 0;
#X connect 4 0 5 0;
#X connect 5 0 6 0;
#X connect 5 1 7 0;
#X connect 6 0 8 0;
#X connect 7 0 8 0;
#X connect 8 0 1 0;
#X connect 9 0 2 0;
#X connect 9 0 4 0;
#X connect 10 0 9 0;
#X connect 12 0 15 0;
#X connect 13 0 12 0;
#X connect 14 0 12 1;
#X restore 302 158 pd -INIT-;
#X obj 82 84 tgl 24 0 \$0-synchro \$0-synchro-in empty 17 7 0 10 -262144
-1 -1 0 1;
#N canvas 31 78 967 490 -MSG- 0;
#X obj 27 19 inlet;
#X msg 423 126 set \$1;
#X obj 355 151 s \$0-velocity-in;
#X obj 257 274 s \$0-id-in;
#X obj 325 275 s \$0-pwm-in;
#X obj 399 275 s \$0-pwm-max-in;
#X obj 496 276 s \$0-delay-on-in;
#X obj 601 277 s \$0-delay-on-max-in;
#X obj 729 278 s \$0-delay-sync-in;
#X msg 257 252 set \$1;
#X msg 325 253 set \$1;
#X msg 399 253 set \$1;
#X msg 496 255 set \$1;
#X msg 601 256 set \$1;
#X msg 729 256 set \$1;
#X obj 306 175 s \$0-delay-in;
#X obj 97 173 r \$0-id;
#X obj 72 174 b;
#X msg 845 257 set \$1;
#X obj 845 278 s \$0-delay-in;
#X obj 257 200 unpack f f f f f f f, f 21;
#X msg 423 104 100;
#X obj 423 82 initbang;
#X obj 257 111 route list delay velocity;
#X obj 146 312 r \$0-pwm;
#X obj 201 391 r \$0-bang;
#X msg 146 334 pwm \$1;
#X obj 206 312 r \$0-pwm-max;
#X obj 286 312 r \$0-delay-on;
#X obj 378 312 r \$0-delay-on-max;
#X obj 671 311 r \$0-velocity;
#X obj 91 313 r \$0-id;
#X msg 671 334 velocity \$1;
#X msg 378 334 delay-on-max \$1;
#X msg 286 334 delay-on \$1;
#X msg 206 334 pwm-max \$1;
#X msg 91 335 id \$1;
#X obj 492 311 r \$0-delay-sync;
#X msg 492 333 delay-sync \$1;
#X obj 201 414 f \$1;
#X obj 72 380 list prepend \$1;
#X obj 596 311 r \$0-delay;
#X msg 596 332 delay \$1;
#X obj 72 432 outlet;
#X obj 27 46 route \$1;
#X msg 72 218 \$1 30 70 60 70 20 20;
#X obj 124 152 canvasdelete 2;
#X obj 72 108 route reset delete;
#X obj 124 131 b;
#X obj 72 406 list trim;
#X obj 72 196 f;
#X text 394 201 List updated from [chimeres] settings;
#X text 30 219 reset;
#X connect 0 0 44 0;
#X connect 1 0 2 0;
#X connect 9 0 3 0;
#X connect 10 0 4 0;
#X connect 11 0 5 0;
#X connect 12 0 6 0;
#X connect 13 0 7 0;
#X connect 14 0 8 0;
#X connect 16 0 50 1;
#X connect 17 0 50 0;
#X connect 18 0 19 0;
#X connect 20 0 9 0;
#X connect 20 0 50 1;
#X connect 20 1 10 0;
#X connect 20 2 11 0;
#X connect 20 3 12 0;
#X connect 20 4 13 0;
#X connect 20 5 14 0;
#X connect 20 6 18 0;
#X connect 21 0 1 0;
#X connect 22 0 21 0;
#X connect 23 0 20 0;
#X connect 23 1 15 0;
#X connect 23 2 2 0;
#X connect 24 0 26 0;
#X connect 25 0 39 0;
#X connect 26 0 40 0;
#X connect 27 0 35 0;
#X connect 28 0 34 0;
#X connect 29 0 33 0;
#X connect 30 0 32 0;
#X connect 31 0 36 0;
#X connect 32 0 40 0;
#X connect 33 0 40 0;
#X connect 34 0 40 0;
#X connect 35 0 40 0;
#X connect 36 0 40 0;
#X connect 37 0 38 0;
#X connect 38 0 40 0;
#X connect 39 0 43 0;
#X connect 40 0 49 0;
#X connect 41 0 42 0;
#X connect 42 0 40 0;
#X connect 44 0 23 0;
#X connect 44 1 47 0;
#X connect 45 0 40 0;
#X connect 45 0 20 0;
#X connect 47 0 17 0;
#X connect 47 1 48 0;
#X connect 48 0 46 0;
#X connect 49 0 43 0;
#X connect 50 0 45 0;
#X restore 51 166 pd -MSG-;
#X obj 51 144 r SETUP;
#X text 103 143 < from [chimeres] settings;
#X obj 51 220 s CHIMERES;
#X obj 64 194 s SETTINGS;
#X connect 13 0 16 0;
#X connect 13 0 17 0;
#X connect 14 0 13 0;
#X coords 0 -1 1 1 224 31 2 50 80;
