#N canvas 222 178 566 375 10;
#X declare -path iemguts;
#X obj 288 104 nbx 3 10 0 100 0 0 \$0-velocity \$0-velocity-in Vel
-18 6 0 9 -262144 -1 -1 100 256;
#X obj 231 104 nbx 3 10 0 100 0 0 \$0-delay \$0-delay-in Delay -28
6 0 8 -228856 -1 -1 15 256;
#X obj 25 229 bng 15 250 50 0 empty empty empty 17 7 0 10 -262144 -1
-1;
#X obj 25 206 route delete;
#X obj 25 250 canvasdelete 1;
#X obj 148 272 r \$0-delay;
#X obj 148 183 r \$0-velocity;
#X msg 288 50 100;
#X obj 288 26 initbang;
#X msg 288 76 set \$1;
#N canvas 1 58 450 394 -GROUP-MSG- 0;
#X obj 137 177 until;
#X obj 137 201 f;
#X obj 164 201 + 1;
#X msg 152 154 0;
#X obj 106 160 sel 0;
#X obj 106 83 t b b f;
#X obj 137 277 pack f f;
#X obj 137 253 + 0;
#X obj 106 134 t f f;
#X obj 157 223 * \$1;
#X obj 106 108 v NB_ARMS;
#X obj 106 34 inlet;
#X obj 106 57 route float;
#X obj 137 309 outlet;
#X connect 0 0 1 0;
#X connect 1 0 2 0;
#X connect 1 0 7 0;
#X connect 2 0 1 1;
#X connect 3 0 1 1;
#X connect 4 1 0 0;
#X connect 5 0 10 0;
#X connect 5 1 3 0;
#X connect 5 2 6 1;
#X connect 6 0 13 0;
#X connect 7 0 6 0;
#X connect 8 0 4 0;
#X connect 8 1 9 0;
#X connect 9 0 7 1;
#X connect 10 0 8 0;
#X connect 11 0 12 0;
#X connect 12 0 5 0;
#X restore 148 204 pd -GROUP-MSG-;
#N canvas 1 58 450 394 -GROUP-MSG- 0;
#X obj 137 177 until;
#X obj 137 201 f;
#X obj 164 201 + 1;
#X msg 152 154 0;
#X obj 106 160 sel 0;
#X obj 106 83 t b b f;
#X obj 137 277 pack f f;
#X obj 137 253 + 0;
#X obj 106 134 t f f;
#X obj 157 223 * \$1;
#X obj 106 108 v NB_ARMS;
#X obj 107 34 inlet;
#X obj 107 57 route float;
#X obj 137 309 outlet;
#X connect 0 0 1 0;
#X connect 1 0 2 0;
#X connect 1 0 7 0;
#X connect 2 0 1 1;
#X connect 3 0 1 1;
#X connect 4 1 0 0;
#X connect 5 0 10 0;
#X connect 5 1 3 0;
#X connect 5 2 6 1;
#X connect 6 0 13 0;
#X connect 7 0 6 0;
#X connect 8 0 4 0;
#X connect 8 1 9 0;
#X connect 9 0 7 1;
#X connect 10 0 8 0;
#X connect 11 0 12 0;
#X connect 12 0 5 0;
#X restore 148 294 pd -GROUP-MSG-;
#X text 402 166 Get delay from settings;
#X text 27 162 Auto-build;
#X text 146 162 Send delay and velocity to \$1 "group";
#X obj 404 7 declare -path iemguts;
#N canvas 1 58 435 362 -GET-DELAY- 0;
#X obj 121 105 list split 1;
#X obj 121 135 route float;
#X obj 121 249 f;
#X obj 246 139 list split 6;
#X obj 121 226 sel \$1;
#X obj 121 296 s \$0-delay-in;
#X msg 121 273 set \$1;
#X obj 165 60 list length;
#X obj 121 42 t a a;
#X obj 121 84 spigot;
#X obj 165 83 == 8;
#X obj 121 181 i;
#X obj 121 204 change -1;
#X text 14 158 Get the "group";
#X obj 121 18 inlet;
#X text 332 138 Get delay;
#X obj 121 158 expr $f1 / NB_ARMS;
#X connect 0 0 1 0;
#X connect 0 1 3 0;
#X connect 1 0 16 0;
#X connect 2 0 6 0;
#X connect 3 1 2 1;
#X connect 4 0 2 0;
#X connect 6 0 5 0;
#X connect 7 0 10 0;
#X connect 8 0 9 0;
#X connect 8 1 7 0;
#X connect 9 0 0 0;
#X connect 10 0 9 1;
#X connect 11 0 12 0;
#X connect 12 0 4 0;
#X connect 14 0 8 0;
#X connect 16 0 11 0;
#X restore 403 214 pd -GET-DELAY-;
#X obj 403 190 r SETUP;
#X msg 148 226 \; SETUP \$1 velocity \$2;
#X msg 148 316 \; SETUP \$1 delay \$2;
#X obj 25 183 r SETUP-GROUP;
#X text 19 9 setup-group \; ----------- \; Set delay and velocity to
the \$1 "group" \; aka one chimere \; Argument \; \$1: chimereID;
#X connect 2 0 4 0;
#X connect 3 0 2 0;
#X connect 5 0 11 0;
#X connect 6 0 10 0;
#X connect 7 0 9 0;
#X connect 8 0 7 0;
#X connect 9 0 0 0;
#X connect 10 0 18 0;
#X connect 11 0 19 0;
#X connect 17 0 16 0;
#X connect 20 0 3 0;
#X coords 0 -1 1 1 224 17 1 100 100;
