#N canvas 536 94 723 574 10;
#N canvas 454 180 464 186 -INIT- 0;
#N canvas 418 96 777 580 -AUTO-BUILD- 0;
#X obj 157 238 until;
#X obj 157 262 f;
#X obj 184 262 + 1;
#X msg 172 215 0;
#X obj 130 165 t b b b;
#X obj 130 214 sel 0;
#X obj 157 492 pack f f f;
#X obj 157 284 t f f f;
#X obj 347 399 * 31;
#X obj 157 431 + 10;
#X obj 347 373 % 6;
#X obj 157 320 div 6;
#X obj 157 381 % 3;
#X obj 198 380 div 3;
#X obj 198 460 + 0;
#X obj 198 406 * 220;
#X obj 157 344 t f f;
#X obj 243 273 *;
#X obj 267 244 t b f;
#X obj 246 315 r NB_ARMS;
#X text 244 432 marges x y;
#X text 24 406 largeur "setup-arm";
#X text 386 399 hauteur "setup-arm";
#X text 26 381 max largeur = 3;
#X obj 246 367 * 31;
#X msg 157 520 \; pd-setup.pd obj \$1 \$2 setup-arm \$3;
#X text 244 406 marges y bloc;
#X obj 130 193 f 22;
#X obj 520 265 t f f f;
#X obj 588 301 div 3;
#X obj 588 327 * 220;
#X obj 631 250 r NB_ARMS;
#X text 634 353 marges x y;
#X obj 631 275 * 31;
#X text 634 327 marges y bloc;
#X obj 520 212 until;
#X obj 520 236 f;
#X obj 547 236 + 1;
#X msg 535 189 0;
#X obj 493 139 t b b b;
#X obj 493 188 sel 0;
#X obj 535 164 r NB_CHIMERES;
#X obj 493 167 f 4;
#X obj 521 356 + 10;
#X obj 521 306 % 3;
#X obj 157 405 * 230;
#X obj 521 332 * 230;
#X obj 588 352 + 120;
#X obj 198 431 + 138;
#X obj 631 298 + 40;
#X obj 246 391 + 40;
#X obj 521 401 pack f 100 f;
#X obj 130 109 sel 1;
#X obj 130 88 change;
#X obj 243 194 r NB_CHIMERES;
#X obj 267 217 r NB_ARMS;
#X msg 243 155 \; SETUP-ARM delete \;;
#X obj 130 64 r AUTO_BUILD;
#X msg 545 123 \; SETUP-GROUP delete \;;
#X msg 520 423 \; pd-setup.pd obj \$1 \$2 setup-group \$3;
#X text 126 10 Build [setup-group] and [setup-arm] abstractions automatically
with NB_ARMS and NB_CHIMERES variables from "conf.txt";
#X connect 0 0 1 0;
#X connect 1 0 2 0;
#X connect 1 0 7 0;
#X connect 2 0 1 1;
#X connect 3 0 1 1;
#X connect 4 0 27 0;
#X connect 4 1 3 0;
#X connect 4 2 56 0;
#X connect 5 1 0 0;
#X connect 6 0 25 0;
#X connect 7 0 11 0;
#X connect 7 1 10 0;
#X connect 7 2 6 2;
#X connect 8 0 14 1;
#X connect 9 0 6 0;
#X connect 10 0 8 0;
#X connect 11 0 16 0;
#X connect 12 0 45 0;
#X connect 13 0 15 0;
#X connect 14 0 6 1;
#X connect 15 0 48 0;
#X connect 16 0 12 0;
#X connect 16 1 13 0;
#X connect 17 0 27 1;
#X connect 18 0 17 0;
#X connect 18 1 17 1;
#X connect 19 0 11 1;
#X connect 19 0 10 1;
#X connect 19 0 24 0;
#X connect 24 0 50 0;
#X connect 27 0 5 0;
#X connect 28 0 44 0;
#X connect 28 1 29 0;
#X connect 28 2 51 2;
#X connect 29 0 30 0;
#X connect 30 0 47 0;
#X connect 31 0 33 0;
#X connect 33 0 49 0;
#X connect 35 0 36 0;
#X connect 36 0 37 0;
#X connect 36 0 28 0;
#X connect 37 0 36 1;
#X connect 38 0 36 1;
#X connect 39 0 42 0;
#X connect 39 1 38 0;
#X connect 39 2 58 0;
#X connect 40 1 35 0;
#X connect 41 0 42 1;
#X connect 42 0 40 0;
#X connect 43 0 51 0;
#X connect 44 0 46 0;
#X connect 45 0 9 0;
#X connect 46 0 43 0;
#X connect 47 0 51 1;
#X connect 48 0 14 0;
#X connect 49 0 30 1;
#X connect 50 0 15 1;
#X connect 51 0 59 0;
#X connect 52 0 4 0;
#X connect 52 0 39 0;
#X connect 53 0 52 0;
#X connect 54 0 17 0;
#X connect 55 0 18 0;
#X connect 57 0 53 0;
#X restore 158 73 pd -AUTO-BUILD-;
#X obj 30 24 loadbang;
#X obj 30 46 delay 1000;
#N canvas 1 96 445 271 -GUI- 0;
#X obj 28 123 metro 1000;
#X obj 30 29 loadbang;
#X msg 30 50 1000;
#X obj 28 145 s SYNCHRO-BANG;
#X obj 28 101 r \$0-synchro;
#X obj 95 123 r \$0-synchro-ms;
#X obj 30 70 s \$0-synchro-ms-in;
#X obj 274 96 r WRITE;
#X obj 274 166 r RESET;
#X msg 274 189 \; SETUP reset;
#X obj 274 27 r LOAD;
#X msg 274 119 \; SETTINGS write;
#X msg 274 50 \; SETTINGS load;
#X connect 0 0 3 0;
#X connect 1 0 2 0;
#X connect 2 0 6 0;
#X connect 4 0 0 0;
#X connect 5 0 0 1;
#X connect 7 0 11 0;
#X connect 8 0 9 0;
#X connect 10 0 12 0;
#X restore 158 96 pd -GUI-;
#X text 261 72 > [setup-group] \, [setup-arm];
#X msg 30 70 \; CONF load \; SETTINGS load \; CLOCK 0 \;;
#X connect 1 0 2 0;
#X connect 2 0 5 0;
#X restore 250 15 pd -INIT-;
#X obj 12 10 cnv 15 230 30 empty empty SETUP 5 15 0 20 -195568 -262144
0;
#X obj 13 46 bng 15 250 50 0 LOAD LOAD LOAD 17 7 0 10 -262144 -1 -1
;
#X obj 13 66 bng 15 250 50 0 WRITE WRITE WRITE 17 7 0 10 -262144 -1
-1;
#X obj 13 86 bng 15 250 50 0 RESET RESET RESET 17 7 0 10 -262144 -1
-1;
#X obj 110 83 tgl 15 0 \$0-synchro \$0-synchro-in SYNCHRO 0 -8 0 10
-262144 -1 -1 1 1;
#X obj 125 83 nbx 4 15 20 5000 0 0 \$0-synchro-ms \$0-synchro-ms-in
empty 0 -8 0 12 -262144 -1 -1 1000 256;
#X obj 10 138 setup-arm 0;
#X obj 10 169 setup-arm 1;
#X obj 10 200 setup-arm 2;
#X obj 10 231 setup-arm 3;
#X obj 10 262 setup-arm 4;
#X obj 10 293 setup-arm 5;
#X obj 240 138 setup-arm 6;
#X obj 240 169 setup-arm 7;
#X obj 240 200 setup-arm 8;
#X obj 240 231 setup-arm 9;
#X obj 240 262 setup-arm 10;
#X obj 240 293 setup-arm 11;
#X obj 470 138 setup-arm 12;
#X obj 470 169 setup-arm 13;
#X obj 470 200 setup-arm 14;
#X obj 470 231 setup-arm 15;
#X obj 470 262 setup-arm 16;
#X obj 470 293 setup-arm 17;
#X obj 10 364 setup-arm 18;
#X obj 10 395 setup-arm 19;
#X obj 10 426 setup-arm 20;
#X obj 10 457 setup-arm 21;
#X obj 10 488 setup-arm 22;
#X obj 10 519 setup-arm 23;
#X obj 240 364 setup-arm 24;
#X obj 240 395 setup-arm 25;
#X obj 240 426 setup-arm 26;
#X obj 240 457 setup-arm 27;
#X obj 240 488 setup-arm 28;
#X obj 240 519 setup-arm 29;
#X obj 10 120 setup-group 0;
#X obj 240 120 setup-group 1;
#X obj 470 120 setup-group 2;
#X obj 10 346 setup-group 3;
#X obj 240 346 setup-group 4;
