#N canvas 747 272 1038 643 12;
#N canvas 606 290 1023 526 SIM 0;
#X obj 10 20 synth-arm 0;
#X obj 35 20 synth-arm 1;
#X obj 10 75 synth-arm 2;
#X obj 35 75 synth-arm 3;
#X obj 10 130 synth-arm 4;
#X obj 35 130 synth-arm 5;
#X obj 110 20 synth-arm 6;
#X obj 135 20 synth-arm 7;
#X obj 110 75 synth-arm 8;
#X obj 135 75 synth-arm 9;
#X obj 110 130 synth-arm 10;
#X obj 135 130 synth-arm 11;
#X obj 210 20 synth-arm 12;
#X obj 235 20 synth-arm 13;
#X obj 210 75 synth-arm 14;
#X obj 235 75 synth-arm 15;
#X obj 210 130 synth-arm 16;
#X obj 235 130 synth-arm 17;
#X obj 310 20 synth-arm 18;
#X obj 335 20 synth-arm 19;
#X obj 310 75 synth-arm 20;
#X obj 335 75 synth-arm 21;
#X obj 310 130 synth-arm 22;
#X obj 335 130 synth-arm 23;
#X obj 410 20 synth-arm 24;
#X obj 435 20 synth-arm 25;
#X obj 410 75 synth-arm 26;
#X obj 435 75 synth-arm 27;
#X obj 410 130 synth-arm 28;
#X obj 435 130 synth-arm 29;
#X coords 0 -1 1 1 470 200 1 0 0;
#X restore 8 62 pd SIM;
#X obj 583 180 uzi 30;
#X msg 669 161 \; pd-SIM clear;
#X obj 721 378 int;
#X obj 622 210 - 1;
#X obj 583 141 t b f b b;
#X obj 622 496 pack f 0 f s;
#X obj 798 359 symbol \$1;
#X obj 622 260 t f f f f;
#X obj 669 375 / 6;
#X obj 669 400 int;
#X obj 622 447 +;
#X obj 622 302 % 2;
#X obj 721 343 / 2;
#X obj 721 407 % 3;
#X obj 622 402 + 10;
#X obj 622 370 * 25;
#X obj 721 457 + 20;
#X obj 721 432 * 55;
#X obj 669 425 * 100;
#X msg 744 123 30;
#X msg 622 533 \; pd-SIM obj \$1 \$2 synth-arm \$3;
#X obj 294 272 text define -k ARMS-GROUPS;
#A set 4 5 10 11 16 17 22 23 28 29 \; 2 3 8 9 14 15 20 21 26 27 \;
0 1 6 7 12 13 18 19 24 25 \;;
#X obj 662 100 nbx 5 14 -1e+37 1e+37 0 0 empty empty empty 0 -8 0 10
-262144 -1 -1 0 256;
#X obj 590 100 f;
#X obj 627 80 *;
#X obj 627 24 r NB_CHIMERES;
#X obj 678 61 r NB_ARMS;
#X text 739 91 total pattes;
#X obj 556 36 inlet;
#X connect 1 2 4 0;
#X connect 3 0 14 0;
#X connect 4 0 8 0;
#X connect 5 0 1 0;
#X connect 5 1 1 1;
#X connect 5 2 2 0;
#X connect 5 3 7 0;
#X connect 6 0 21 0;
#X connect 7 0 6 3;
#X connect 8 0 12 0;
#X connect 8 1 9 0;
#X connect 8 2 13 0;
#X connect 8 3 6 2;
#X connect 9 0 10 0;
#X connect 10 0 19 0;
#X connect 11 0 6 0;
#X connect 12 0 16 0;
#X connect 13 0 3 0;
#X connect 14 0 18 0;
#X connect 15 0 11 0;
#X connect 16 0 15 0;
#X connect 17 0 6 1;
#X connect 18 0 17 0;
#X connect 19 0 11 1;
#X connect 20 0 5 0;
#X connect 24 0 5 0;
#X connect 25 0 23 0;
#X connect 25 0 24 1;
#X connect 26 0 25 0;
#X connect 27 0 25 1;
#X connect 29 0 24 0;
#X coords 0 -1 1 1 470 200 2 8 62;
