#N canvas 160 285 1113 668 12;
#X obj 141 216 % 2;
#X obj 369 378 audio-sampler;
#X obj 408 120 r sim-chim;
#X obj 408 145 route \$1;
#X obj 142 88 loadbang;
#X obj 142 246 * 0.5;
#X obj 142 271 + 0.25;
#X obj 101 132 bng 18 50 50 0 empty empty empty 15 7 0 9 -262144 -1
-1;
#X obj 101 103 vsl 18 28 0 1 0 0 empty \$0-gui \$1 4 40 0 9 -262144
-1 -1 2700 1;
#X obj 431 446 / 100;
#X obj 100 386 t b b;
#X obj 368 490 audio-out 1;
#X obj 229 167 bng 15 250 50 0 empty empty empty 17 7 0 10 -262144
-1 -1;
#X obj 473 212 s \$0-gui;
#X msg 535 354 file \$1;
#X obj 535 323 makefilename \$2/%04d.wav;
#X obj 188 120 init \$1;
#X obj 142 180 f \$1;
#X obj 533 290 nbx 5 14 -1e+37 1e+37 0 0 empty empty empty 0 -8 0 10
-262144 -1 -1 0 256;
#X msg 408 259 play \, loop 0;
#X obj 408 173 t b f f;
#X obj 336 246 max 0.25;
#X obj 335 221 * 0.016;
#X msg 335 313 speed 1;
#X connect 0 0 5 0;
#X connect 1 0 11 1;
#X connect 1 0 11 0;
#X connect 2 0 3 0;
#X connect 3 0 20 0;
#X connect 4 0 17 0;
#X connect 4 0 23 0;
#X connect 5 0 6 0;
#X connect 6 0 11 3;
#X connect 7 0 10 0;
#X connect 9 0 11 2;
#X connect 12 0 17 0;
#X connect 14 0 1 2;
#X connect 15 0 14 0;
#X connect 16 0 17 0;
#X connect 16 0 23 0;
#X connect 17 0 0 0;
#X connect 17 0 15 0;
#X connect 18 0 15 0;
#X connect 19 0 1 2;
#X connect 20 0 19 0;
#X connect 20 0 7 0;
#X connect 20 1 9 0;
#X connect 20 1 13 0;
#X connect 20 2 22 0;
#X connect 22 0 21 0;
#X connect 23 0 1 2;
#X coords 0 -1 1 1 20 50 2 100 100;
