#N canvas 417 126 866 923 12;
#X obj 410 139 route \$1;
#X obj 142 88 loadbang;
#X obj 101 132 bng 18 50 50 0 empty empty empty 15 7 0 9 -262144 -1
-1;
#X obj 229 167 bng 15 250 50 0 empty empty empty 17 7 0 10 -262144
-1 -1;
#X obj 589 513 s \$0-gui;
#X obj 188 120 init \$1;
#X obj 142 180 f \$1;
#X obj 369 482 lop~;
#X obj 485 602 line~;
#X msg 487 572 \$1 \, 0 \$2;
#X obj 488 532 pack f f;
#X obj 488 494 / 100;
#X obj 351 653 *~;
#X msg 394 399 \$1 \, 0 \$2;
#X obj 394 426 line;
#X obj 394 451 *;
#X obj 291 308 noise~;
#X obj 410 173 t b f f f b;
#X obj 370 602 hip~;
#X obj 555 282 int;
#X obj 555 254 / 2;
#X obj 555 310 % 3;
#X obj 555 220 t f f;
#X obj 541 492 + 5;
#X obj 541 467 * 3;
#X obj 403 573 *;
#X obj 301 856 dac~;
#X obj 141 216 / 30;
#X obj 361 321 expr 1000 / $f1;
#N canvas 1968 126 508 368 \$0_delay 0;
#X obj 256 130 z~;
#X obj 292 129 z~ 2;
#X obj 255 159 +~;
#X obj 134 227 inlet~;
#X obj 254 66 inlet~;
#X obj 255 250 outlet~;
#X obj 134 50 block~ 1;
#X obj 133 264 +~;
#X text 131 23 reducing block size to 1 allows for shorter delays;
#X obj 255 94 vd~ \$0-buff2;
#X obj 132 292 delwrite~ \$0-buff2 100;
#X obj 255 185 *~ 0.5;
#X obj 256 219 *~ 0.5;
#X connect 0 0 2 0;
#X connect 1 0 2 1;
#X connect 2 0 11 0;
#X connect 3 0 7 0;
#X connect 4 0 9 0;
#X connect 7 0 10 0;
#X connect 9 0 0 0;
#X connect 9 0 1 0;
#X connect 11 0 12 0;
#X connect 12 0 5 0;
#X connect 12 0 7 1;
#X restore 287 396 pd \$0_delay;
#X obj 362 358 sig~;
#X msg 101 155 100;
#X obj 101 132 bng 18 50 50 0 empty empty empty 15 7 0 9 -262144 -1
-1;
#X obj 101 102 vsl 18 28 0 1 0 0 empty \$0-gui \$1 4 40 0 9 -262144
-1 -1 1385 1;
#X obj 290 330 *~ 0.5;
#X obj 84 263 f \$1;
#X obj 52 205 t f b;
#X obj 672 357 t b f;
#X msg 672 382 3;
#X obj 672 407 -;
#X obj 672 432 * 200;
#X obj 672 457 + 50;
#X obj 420 546 - 30;
#X obj 700 517 f \$1;
#X obj 700 542 * 10;
#X obj 672 482 t f b;
#X obj 661 574 +;
#X obj 553 173 nbx 5 14 -1e+37 1e+37 0 0 empty empty empty 0 -8 0 10
-262144 -1 -1 0 256;
#X obj 527 192 f \$1;
#X obj 410 113 r CHIMERES;
#X obj 300 759 *~;
#X obj 327 797 *~;
#X obj 350 765 -~;
#X obj 350 738 sig~ 1;
#X obj 141 586 sig~;
#X obj 661 642 t f b;
#X obj 350 693 bp~ 200 10;
#X obj 693 683 f 8;
#X obj 661 599 * 2;
#X connect 0 0 17 0;
#X connect 1 0 6 0;
#X connect 2 0 31 0;
#X connect 3 0 6 0;
#X connect 5 0 6 0;
#X connect 6 0 27 0;
#X connect 7 0 18 0;
#X connect 8 0 12 0;
#X connect 9 0 8 0;
#X connect 10 0 9 0;
#X connect 10 0 13 0;
#X connect 11 0 10 0;
#X connect 11 0 4 0;
#X connect 12 0 56 0;
#X connect 13 0 14 0;
#X connect 14 0 15 0;
#X connect 14 0 25 0;
#X connect 15 0 7 1;
#X connect 16 0 34 0;
#X connect 17 0 32 0;
#X connect 17 2 11 0;
#X connect 17 3 24 0;
#X connect 17 4 48 0;
#X connect 18 0 12 1;
#X connect 19 0 21 0;
#X connect 20 0 19 0;
#X connect 21 0 37 0;
#X connect 22 0 20 0;
#X connect 23 0 10 1;
#X connect 24 0 23 0;
#X connect 25 0 18 1;
#X connect 27 0 54 0;
#X connect 28 0 30 0;
#X connect 29 0 7 0;
#X connect 30 0 29 1;
#X connect 31 0 36 0;
#X connect 34 0 29 0;
#X connect 35 0 22 0;
#X connect 36 0 17 0;
#X connect 36 1 35 0;
#X connect 37 0 38 0;
#X connect 37 1 39 1;
#X connect 38 0 39 0;
#X connect 39 0 40 0;
#X connect 40 0 41 0;
#X connect 41 0 45 0;
#X connect 42 0 25 1;
#X connect 43 0 44 0;
#X connect 44 0 46 1;
#X connect 45 0 46 0;
#X connect 45 1 43 0;
#X connect 46 0 15 1;
#X connect 46 0 28 0;
#X connect 46 0 42 0;
#X connect 46 0 58 0;
#X connect 47 0 22 0;
#X connect 48 0 22 0;
#X connect 49 0 0 0;
#X connect 50 0 26 0;
#X connect 51 0 26 1;
#X connect 52 0 51 1;
#X connect 53 0 52 0;
#X connect 54 0 50 1;
#X connect 54 0 52 1;
#X connect 55 0 56 1;
#X connect 55 1 57 0;
#X connect 56 0 51 0;
#X connect 56 0 50 0;
#X connect 57 0 56 2;
#X connect 58 0 55 0;
#X coords 0 -1 1 1 20 50 2 100 100;
