#N canvas 151 110 500 429 10;
#X declare -path iemguts;
#X obj 50 50 bng 24 100 100 0 \$0-bang \$0-bang-in 12 3 12 0 16 -262144
-262144 -66577;
#X msg 258 345 label \$1;
#X obj 258 323 makefilename %d;
#X obj 357 287 > 9;
#X obj 357 308 sel 0 1;
#X msg 357 329 8;
#X msg 386 330 3;
#X msg 357 351 label_pos \$1 12;
#X obj 258 265 f \$1;
#X obj 258 239 initbang;
#X text 354 266 Adjust label posX;
#X obj 256 101 r VIEW-ARM;
#X obj 256 123 route delete;
#X obj 256 147 b;
#X obj 256 170 canvasdelete 1;
#X text 255 77 Auto-build;
#X obj 50 274 route \$1;
#X obj 50 78 f \$1;
#X obj 258 380 s \$0-bang-in;
#X obj 50 366 s \$0-bang-in;
#X msg 50 344 color 2 0 0;
#X msg 92 322 color 0 0 2;
#X obj 92 298 del 100;
#X obj 50 298 t b b;
#X obj 50 181 route float list;
#X obj 142 223 list length;
#X obj 142 248 == 2;
#X obj 96 249 spigot;
#X obj 96 205 t a a;
#X text 48 121 Receive trigger;
#X obj 254 42 declare -path iemguts;
#X obj 50 100 s CHIMERES;
#X obj 50 140 r CHIMERES;
#X text 47 29 Send trigger;
#X text 255 220 GUI: Bang Label;
#X obj 50 161 spigot;
#X obj 124 143 r COMPOZER_VIEW;
#X connect 0 0 17 0;
#X connect 1 0 18 0;
#X connect 2 0 1 0;
#X connect 3 0 4 0;
#X connect 4 0 5 0;
#X connect 4 1 6 0;
#X connect 5 0 7 0;
#X connect 6 0 7 0;
#X connect 7 0 18 0;
#X connect 8 0 2 0;
#X connect 8 0 3 0;
#X connect 9 0 8 0;
#X connect 11 0 12 0;
#X connect 12 0 13 0;
#X connect 13 0 14 0;
#X connect 16 0 23 0;
#X connect 17 0 31 0;
#X connect 20 0 19 0;
#X connect 21 0 19 0;
#X connect 22 0 21 0;
#X connect 23 0 20 0;
#X connect 23 1 22 0;
#X connect 24 0 16 0;
#X connect 24 1 28 0;
#X connect 25 0 26 0;
#X connect 26 0 27 1;
#X connect 27 0 16 0;
#X connect 28 0 27 0;
#X connect 28 1 25 0;
#X connect 32 0 35 0;
#X connect 35 0 24 0;
#X connect 36 0 35 1;
#X coords 0 -1 1 1 24 24 2 50 50;
