#N canvas 48 118 1654 742 12;
#X declare -path abs;
#N canvas 307 349 1184 566 TIMER 0;
#X obj 388 140 r bGUI;
#X msg 527 289 0;
#X msg 439 288 0;
#X obj 439 321 phasor~ 0;
#X obj 289 124 tgl 15 0 \$0-ONOFF empty ON 20 9 2 12 -4032 -1 -1 0
1;
#X obj 439 206 sel 0;
#X obj 471 235 t b;
#X obj 471 260 f 0.003;
#X obj 438 359 rzero~ 1;
#X obj 438 383 threshold~ 0 10 0 10;
#X obj 438 420 bng 15 250 50 0 empty empty empty 17 7 0 10 -262144
-1 -1;
#X obj 517 184 expr 1/($f1*60);
#X msg 372 220 set \$1;
#X obj 287 311 tavg~;
#X obj 211 291 metro 100;
#X obj 379 307 nbx 5 14 -1e+37 1e+37 0 0 empty empty empty 0 -8 0 10
-262144 -1 -1 0 256;
#X obj 108 123 nbx 3 16 1 1e+37 0 0 \$0-DUREE empty RDM-GEN-duree(mn)
0 -8 2 12 -4032 -1 -1 1 256;
#X obj 683 342 outlet MAIN-FREQ;
#X obj 532 342 outlet~ MAIN-FREQ;
#X obj 828 435 outlet MAIN-STOP;
#X obj 150 433 outlet MAIN-PLAY;
#X obj 150 210 t b f;
#X obj 517 121 r \$0-DUREE;
#X obj 439 164 r \$0-ONOFF;
#X obj 211 336 s \$0-BGUI;
#X obj 240 124 bng 15 250 50 0 empty empty NEW 17 7 0 10 -4032 -1 -1
;
#X obj 960 434 outlet NEW;
#X obj 287 336 s \$0-timeline;
#X obj 103 139 hsl 245 8 0 1 0 0 empty \$0-timeline empty -2 -8 0 10
-228856 -1 -1 0 1;
#X obj 109 172 nbx 3 16 0 1000 0 0 \$0-ALIEN-SPEED \$0-ALIEN-SPEED-in
ALIEN-SPEED 0 -8 2 12 -261682 -1 -1 0 256;
#X obj 240 173 bng 15 250 50 0 \$0-ALIEN-SHOT \$0-ALIEN-SHOT-in SHOT
17 7 0 10 -261682 -1 -1;
#X obj 289 173 tgl 15 0 \$0-ALIEN-MODE \$0-ALIEN-MODE-in ALIEN 20 9
2 12 -261682 -1 -1 0 1;
#X obj 36 155 inlet;
#X obj 196 172 nbx 3 16 0 500 0 0 \$0-ALIEN-LENGTH empty LENGHT 0 -8
2 12 -261682 -1 -1 0 256;
#X obj 146 173 tgl 15 0 \$0-ALIEN-LFO-SPEED \$0-ALIEN-LFO-SPEED-in
LFO 20 9 2 12 -261682 -1 -1 1 1;
#X obj 34 292 spigot;
#X obj 39 114 init 1;
#X connect 1 0 3 1;
#X connect 2 0 3 0;
#X connect 2 0 12 0;
#X connect 3 0 8 0;
#X connect 3 0 13 0;
#X connect 3 0 18 0;
#X connect 4 0 21 0;
#X connect 5 0 2 0;
#X connect 5 0 1 0;
#X connect 5 1 6 0;
#X connect 6 0 7 0;
#X connect 7 0 3 0;
#X connect 7 0 15 0;
#X connect 7 0 17 0;
#X connect 8 0 9 0;
#X connect 9 0 10 0;
#X connect 10 0 19 0;
#X connect 10 0 1 0;
#X connect 10 0 2 0;
#X connect 11 0 7 1;
#X connect 12 0 4 0;
#X connect 13 0 27 0;
#X connect 14 0 13 0;
#X connect 14 0 24 0;
#X connect 21 0 20 0;
#X connect 21 1 14 0;
#X connect 22 0 11 0;
#X connect 23 0 5 0;
#X connect 25 0 26 0;
#X connect 32 0 35 0;
#X connect 34 0 35 1;
#X connect 35 0 29 0;
#X connect 36 0 34 0;
#X coords 0 -1 1 1 250 100 2 100 100;
#X restore 38 81 pd TIMER;
#X obj 98 194 s~ \$0-MAIN-PHASOR;
#X obj 38 216 s \$0-MAIN-PLAY;
#X obj 159 214 s \$0-MAIN-FREQ;
#X obj 221 192 s \$0-MAIN-STOP;
#X obj 281 214 s \$0-NEW;
#N canvas 166 163 1445 864 STRUCTURE 0;
#X obj 633 397 f;
#X obj 673 397 + 1;
#X obj 651 339 r \$0-MAIN-STOP;
#X msg 651 364 0;
#X obj 703 210 % 2;
#X obj 671 181 t f f;
#X obj 633 239 nbx 5 14 -1e+37 1e+37 0 0 empty empty empty 0 -8 0 10
-262144 -1 -1 0 256;
#X obj 671 100 r \$0-NEW;
#X obj 703 238 == 0;
#X obj 633 258 +;
#X obj 747 100 r \$0-DUREE;
#X obj 671 126 random 4;
#X obj 747 125 max 3;
#X obj 747 150 min 7;
#X obj 633 452 nbx 5 14 -1e+37 1e+37 0 0 empty empty empty 0 -8 0 10
-262144 -1 -1 0 256;
#X obj 674 517 nbx 5 14 -1e+37 1e+37 0 0 empty empty empty 0 -8 0 10
-262144 -1 -1 0 256;
#X obj 633 310 r \$0-MAIN-PLAY;
#X obj 325 526 wrap~;
#X obj 326 435 inlet~;
#X obj 325 562 rzero~ 1;
#X obj 316 595 threshold~ 0 100;
#X obj 325 489 *~ 1;
#X obj 608 634 wrap~;
#X obj 608 597 *~ 1;
#X text 374 524 decoupage t1;
#X text 656 593 decoupage t2;
#X obj 633 473 tabread \$0-structure-t2;
#N canvas 686 251 404 566 generation-structure-t2 0;
#X obj 207 259 - 1;
#X obj 105 184 t b f, f 15;
#X obj 66 121 bng 15 250 50 0 empty empty empty 17 7 0 10 -262144 -1
-1;
#X obj 66 149 uzi 10;
#X obj 105 240 max 1;
#X obj 105 265 * 4;
#X obj 128 106 pack f \$0;
#X obj 66 340 nbx 5 14 -1e+37 1e+37 0 0 empty empty empty 0 -8 0 10
-262144 -1 -1 0 256;
#X obj 66 313 bng 15 250 50 0 empty empty empty 17 7 0 10 -262144 -1
-1;
#X obj 83 70 t b f f f b;
#X obj 66 393 nbx 5 14 -1e+37 1e+37 0 0 empty empty empty 0 -8 0 10
-262144 -1 -1 0 256;
#X obj 66 412 t f b;
#X obj 120 443 f;
#X obj 138 412 - 1;
#X obj 217 79 bng 15 250 50 0 empty empty empty 17 7 0 10 -262144 -1
-1;
#X obj 105 308 tabwrite \$0-structure-t2;
#X obj 89 482 tabwrite \$0-structure-t2;
#X obj 66 364 tabread \$0-structure-t2;
#X msg 129 133 \; \$2-structure-t2 resize \$1;
#X obj 83 45 inlet nb-of-themes;
#X obj 105 215 random 12;
#X connect 0 0 15 1;
#X connect 1 0 20 0;
#X connect 1 1 0 0;
#X connect 2 0 3 0;
#X connect 3 0 8 0;
#X connect 3 2 1 0;
#X connect 4 0 5 0;
#X connect 5 0 15 0;
#X connect 6 0 18 0;
#X connect 7 0 17 0;
#X connect 8 0 7 0;
#X connect 9 0 2 0;
#X connect 9 1 3 1;
#X connect 9 2 6 0;
#X connect 9 3 13 0;
#X connect 10 0 11 0;
#X connect 11 0 16 0;
#X connect 11 1 12 0;
#X connect 12 0 16 1;
#X connect 13 0 12 1;
#X connect 14 0 6 0;
#X connect 17 0 10 0;
#X connect 19 0 9 0;
#X connect 20 0 4 0;
#X restore 146 208 pd generation-structure-t2;
#X text 176 177 > change distrib at new;
#X obj 677 278 s \$0-nb-of-t2;
#X obj 78 181 r \$0-nb-of-t2;
#X obj 78 231 r \$0-nb-of-t3;
#X obj 834 100 r \$0-NEW;
#X obj 834 189 s \$0-nb-of-t3;
#X obj 607 667 rzero~ 1;
#X obj 607 691 threshold~ 0 100;
#X obj 945 684 wrap~;
#X obj 945 720 rzero~ 1;
#X obj 945 744 threshold~ 0 100;
#X obj 945 647 *~ 1;
#N canvas 970 323 706 506 generation-structure-t3 0;
#X obj 207 259 - 1;
#X obj 105 184 t b f, f 15;
#X obj 66 121 bng 15 250 50 0 empty empty empty 17 7 0 10 -262144 -1
-1;
#X obj 66 149 uzi 10;
#X obj 128 106 pack f \$0;
#X obj 83 70 t b f f f b;
#X obj 217 79 bng 15 250 50 0 empty empty empty 17 7 0 10 -262144 -1
-1;
#X msg 129 133 \; \$2-structure-t3 resize \$1;
#X obj 83 45 inlet;
#X obj 105 408 tabwrite \$0-structure-t3;
#X obj 105 256 + 1;
#X obj 105 371 * 4;
#X obj 137 309 random 2;
#X obj 105 281 t f b;
#X obj 137 334 + 3;
#X obj 105 231 random 4;
#X connect 0 0 9 1;
#X connect 1 0 15 0;
#X connect 1 1 0 0;
#X connect 2 0 3 0;
#X connect 3 2 1 0;
#X connect 4 0 7 0;
#X connect 5 0 2 0;
#X connect 5 1 3 1;
#X connect 5 2 4 0;
#X connect 6 0 4 0;
#X connect 8 0 5 0;
#X connect 10 0 13 0;
#X connect 11 0 9 0;
#X connect 12 0 14 0;
#X connect 13 0 11 0;
#X connect 13 1 12 0;
#X connect 14 0 11 1;
#X connect 15 0 10 0;
#X restore 146 258 pd generation-structure-t3;
#X text 993 643 decoupage t3;
#X obj 674 569 t f f;
#X obj 78 281 r \$0-nb-of-t4;
#X obj 954 100 r \$0-NEW;
#X obj 954 127 random 4;
#N canvas 467 169 970 633 generation-structure-t4 0;
#X obj 207 269 - 1;
#X obj 105 184 t b f, f 15;
#X obj 66 121 bng 15 250 50 0 empty empty empty 17 7 0 10 -262144 -1
-1;
#X obj 66 149 uzi 10;
#X obj 128 106 pack f \$0;
#X obj 83 70 t b f f f b;
#X obj 217 79 bng 15 250 50 0 empty empty empty 17 7 0 10 -262144 -1
-1;
#X obj 83 45 inlet;
#X obj 105 308 tabwrite \$0-structure-t4;
#X msg 129 133 \; \$2-structure-t4 resize \$1;
#X obj 105 275 * 16;
#X obj 105 250 + 2;
#X obj 105 215 random 8;
#X connect 0 0 8 1;
#X connect 1 0 12 0;
#X connect 1 1 0 0;
#X connect 2 0 3 0;
#X connect 3 2 1 0;
#X connect 4 0 9 0;
#X connect 5 0 2 0;
#X connect 5 1 3 1;
#X connect 5 2 4 0;
#X connect 6 0 4 0;
#X connect 7 0 5 0;
#X connect 10 0 8 0;
#X connect 11 0 10 0;
#X connect 12 0 11 0;
#X restore 146 308 pd generation-structure-t4;
#X obj 954 189 s \$0-nb-of-t4;
#X obj 969 600 nbx 5 14 -1e+37 1e+37 0 0 empty empty empty 0 -8 0 10
-262144 -1 -1 0 256;
#X obj 969 619 t f f;
#X obj 671 151 + 2;
#X obj 513 279 nbx 5 14 -1e+37 1e+37 0 0 empty empty empty 0 -8 0 10
-262144 -1 -1 0 256;
#X obj 315 695 s \$0-B1;
#X obj 608 729 s \$0-B2;
#X obj 946 801 s \$0-B3;
#X obj 516 616 s~ \$0-S1;
#X obj 751 661 s~ \$0-S2;
#N canvas 0 50 450 250 (subpatch) 0;
#X array \$0-structure-t2 9 float 3;
#A 0 8 36 16 4 36 40 12 20 8;
#X coords 0 250 9 249 250 120 0;
#X restore 20 212 graph;
#N canvas 0 50 450 250 (subpatch) 0;
#X array \$0-structure-t3 3 float 3;
#A 0 12 16 6;
#X coords 0 250 3 249 250 120 0;
#X restore 20 232 graph;
#N canvas 1 83 582 333 (subpatch) 0;
#X array \$0-structure-t4 3 float 3;
#A 0 80 96 32;
#X coords 0 333 3 332 250 120 0;
#X restore 20 252 graph;
#X obj 714 432 r \$0-BGUI;
#X obj 968 523 * 16;
#X obj 704 396 r \$0-nb-of-t2;
#X obj 673 422 % 4;
#X obj 1023 397 f;
#X obj 1073 397 + 1;
#X obj 1041 339 r \$0-MAIN-STOP;
#X msg 1041 364 0;
#X obj 1023 449 nbx 5 14 -1e+37 1e+37 0 0 empty empty empty 0 -8 0
10 -262144 -1 -1 0 256;
#X obj 1023 310 r \$0-MAIN-PLAY;
#X obj 1123 429 r \$0-BGUI;
#X obj 1073 422 % 4;
#X obj 1142 503 nbx 5 14 -1e+37 1e+37 0 0 empty empty empty 0 -8 0
10 -262144 -1 -1 0 256;
#X obj 1023 473 tabread \$0-structure-t4;
#X obj 1107 397 r \$0-nb-of-t4;
#X obj 834 127 random 4;
#X obj 834 159 + 2;
#X obj 954 159 + 2;
#X obj 454 616 t b b;
#X obj 813 397 f;
#X obj 863 397 + 1;
#X obj 831 339 r \$0-MAIN-STOP;
#X msg 831 364 0;
#X obj 813 449 nbx 5 14 -1e+37 1e+37 0 0 empty empty empty 0 -8 0 10
-262144 -1 -1 0 256;
#X obj 813 310 r \$0-MAIN-PLAY;
#X obj 813 473 tabread \$0-structure-t3;
#X obj 913 429 r \$0-BGUI;
#X obj 897 397 r \$0-nb-of-t3;
#X obj 863 422 % 4;
#X obj 633 283 * 1;
#X obj 1119 659 f;
#X obj 1169 659 + 1;
#X obj 1137 601 r \$0-MAIN-STOP;
#X msg 1137 626 0;
#X obj 1119 572 r \$0-MAIN-PLAY;
#X obj 1169 684 % 4;
#X obj 1119 684 sel 0;
#X obj 1205 639 r \$0-MAIN-MODULO;
#X obj 1205 664 * 4;
#X obj 969 549 max 128;
#X obj 969 574 min 1024;
#X obj 614 367 bng 15 250 50 0 empty empty empty 17 7 0 10 -262144
-1 -1;
#X text 1012 803 steps bang;
#X obj 818 531 nbx 5 14 -1e+37 1e+37 0 0 empty empty empty 0 -8 0 10
-262144 -1 -1 0 256;
#X obj 510 328 nbx 5 14 -1e+37 1e+37 0 0 empty empty empty 0 -8 0 10
-262144 -1 -1 0 256;
#X obj 785 536 *;
#X obj 785 561 *;
#X obj 837 657 nbx 5 14 -1e+37 1e+37 0 0 empty empty empty 0 -8 0 10
-262144 -1 -1 0 256;
#X obj 599 213 bng 15 250 50 0 empty empty empty 17 7 0 10 -262144
-1 -1;
#X obj 911 563 bng 15 250 50 0 empty empty empty 17 7 0 10 -262144
-1 -1;
#X obj 821 721 nbx 5 14 -1e+37 1e+37 0 0 empty empty empty 0 -8 0 10
-262144 -1 -1 0 256;
#X obj 519 128 s \$0-NEW;
#X obj 515 100 bng 15 250 50 0 empty empty empty 17 7 0 10 -262144
-1 -1;
#X obj 840 582 nbx 5 14 -1e+37 1e+37 0 0 empty empty empty 0 -8 0 10
-262144 -1 -1 0 256;
#X obj 837 676 % 4;
#X obj 785 586 f;
#X obj 797 263 r \$0-NEW;
#X obj 785 611 change;
#X connect 0 0 1 0;
#X connect 0 0 14 0;
#X connect 1 0 63 0;
#X connect 2 0 3 0;
#X connect 3 0 0 1;
#X connect 4 0 8 0;
#X connect 5 0 6 0;
#X connect 5 1 4 0;
#X connect 6 0 9 0;
#X connect 7 0 11 0;
#X connect 8 0 9 1;
#X connect 9 0 29 0;
#X connect 9 0 51 0;
#X connect 9 0 89 0;
#X connect 9 0 105 1;
#X connect 10 0 12 0;
#X connect 11 0 50 0;
#X connect 12 0 13 0;
#X connect 13 0 11 1;
#X connect 14 0 26 0;
#X connect 15 0 42 0;
#X connect 16 0 0 0;
#X connect 17 0 19 0;
#X connect 17 0 23 0;
#X connect 17 0 55 0;
#X connect 18 0 21 0;
#X connect 19 0 20 0;
#X connect 20 0 52 0;
#X connect 20 0 78 0;
#X connect 21 0 17 0;
#X connect 21 0 39 0;
#X connect 22 0 34 0;
#X connect 22 0 56 0;
#X connect 23 0 22 0;
#X connect 26 0 15 0;
#X connect 26 0 61 1;
#X connect 26 0 105 0;
#X connect 30 0 27 0;
#X connect 31 0 40 0;
#X connect 32 0 75 0;
#X connect 34 0 35 0;
#X connect 35 0 53 0;
#X connect 36 0 37 0;
#X connect 37 0 38 0;
#X connect 38 0 54 0;
#X connect 38 0 79 0;
#X connect 38 0 90 0;
#X connect 39 0 36 0;
#X connect 42 0 23 1;
#X connect 43 0 46 0;
#X connect 44 0 45 0;
#X connect 45 0 77 0;
#X connect 48 0 49 0;
#X connect 49 0 39 1;
#X connect 50 0 5 0;
#X connect 60 0 14 0;
#X connect 61 0 99 0;
#X connect 62 0 63 1;
#X connect 63 0 0 1;
#X connect 64 0 65 0;
#X connect 64 0 68 0;
#X connect 65 0 71 0;
#X connect 66 0 67 0;
#X connect 67 0 64 1;
#X connect 68 0 73 0;
#X connect 69 0 64 0;
#X connect 70 0 68 0;
#X connect 71 0 64 1;
#X connect 73 0 72 0;
#X connect 73 0 61 0;
#X connect 73 0 106 1;
#X connect 74 0 71 1;
#X connect 75 0 76 0;
#X connect 76 0 33 0;
#X connect 77 0 47 0;
#X connect 78 0 0 0;
#X connect 79 0 80 0;
#X connect 79 0 83 0;
#X connect 80 0 88 0;
#X connect 81 0 82 0;
#X connect 82 0 79 1;
#X connect 83 0 85 0;
#X connect 84 0 79 0;
#X connect 85 0 103 0;
#X connect 86 0 83 0;
#X connect 87 0 88 1;
#X connect 88 0 79 1;
#X connect 89 0 104 0;
#X connect 90 0 91 0;
#X connect 90 0 96 0;
#X connect 91 0 95 0;
#X connect 92 0 93 0;
#X connect 93 0 90 1;
#X connect 94 0 90 0;
#X connect 95 0 90 1;
#X connect 96 0 64 0;
#X connect 97 0 98 0;
#X connect 98 0 95 1;
#X connect 99 0 100 0;
#X connect 100 0 48 0;
#X connect 101 0 0 0;
#X connect 104 0 21 1;
#X connect 105 0 106 0;
#X connect 106 0 113 0;
#X connect 106 0 115 0;
#X connect 107 0 114 0;
#X connect 108 0 6 0;
#X connect 109 0 107 0;
#X connect 112 0 111 0;
#X connect 114 0 110 0;
#X connect 115 0 117 0;
#X connect 116 0 101 0;
#X connect 116 0 79 0;
#X connect 116 0 64 0;
#X coords 0 864 1 863 320 500 0;
#X restore 1508 336 pd STRUCTURE;
#X obj 1509 298 r~ \$0-MAIN-PHASOR;
#X obj 1316 57 text define -k \$0-routing;
#A set 18 9 17 13 0 24 29 5 19 10 26 20 4 8 1 27 25 6 21 14 15 7 11
22 12 23 28 16 3 2 \; 0 1 2 3 4 5 6 7 8 9 10 11 12 13 14 15 16 17 18
19 20 21 22 23 24 25 26 27 28 29 \;;
#X obj 1533 201 r NB-OF-ARMS;
#X obj 1508 228 f 30;
#N canvas 976 100 594 554 set-routing 0;
#X obj 59 245 cyclone/urn 30;
#X obj 59 217 until;
#X obj 59 270 t f b;
#X obj 137 299 f;
#X obj 167 299 + 1;
#X obj 167 324 % 30;
#X obj 59 177 t f f f b;
#X obj 59 365 t f b;
#X msg 81 393 0;
#X obj 59 429 text set \$0-routing;
#X obj 58 149 inlet;
#X obj 299 270 t f b;
#X obj 377 299 f;
#X obj 407 299 + 1;
#X obj 407 324 % 30;
#X msg 395 266 0;
#X obj 299 365 t f b;
#X obj 299 429 text set \$0-routing;
#X obj 260 214 uzi 30;
#X obj 299 243 - 1;
#X obj 260 159 bng 15 250 50 0 empty empty empty 17 7 0 10 -262144
-1 -1;
#X obj 260 179 t b b b;
#X text 328 126 alienmode;
#X msg 321 393 1;
#X obj 260 125 r \$0-lb;
#X connect 0 0 2 0;
#X connect 0 1 1 1;
#X connect 1 0 0 0;
#X connect 2 0 7 0;
#X connect 2 1 3 0;
#X connect 3 0 4 0;
#X connect 3 0 9 2;
#X connect 4 0 5 0;
#X connect 5 0 3 1;
#X connect 6 0 1 0;
#X connect 6 1 0 1;
#X connect 6 2 5 1;
#X connect 7 0 9 0;
#X connect 7 1 8 0;
#X connect 8 0 9 1;
#X connect 10 0 6 0;
#X connect 11 0 16 0;
#X connect 11 1 12 0;
#X connect 12 0 13 0;
#X connect 12 0 17 2;
#X connect 13 0 14 0;
#X connect 14 0 12 1;
#X connect 15 0 12 1;
#X connect 16 0 17 0;
#X connect 16 1 23 0;
#X connect 18 2 19 0;
#X connect 19 0 11 0;
#X connect 20 0 21 0;
#X connect 21 0 18 0;
#X connect 21 1 15 0;
#X connect 23 0 17 1;
#X connect 24 0 20 0;
#X restore 1508 256 pd set-routing;
#X obj 1337 32 text define -k \$0-arms;
#A set 4 5 10 11 16 17 22 23 28 29 \; 2 3 8 9 14 15 20 21 26 27 \;
0 1 6 7 12 13 18 19 24 25 \;;
#N canvas 173 425 632 552 LFO 0;
#X obj 187 311 wrap~;
#X obj 373 398 rzero~ 1;
#X obj 389 324 line~;
#X obj 188 351 cyclone/triangle~ @lo 0 @hi 1;
#X obj 373 422 threshold~ 0 900;
#X obj 389 269 random 2;
#X msg 389 298 \$1 10;
#X obj 187 214 inlet~;
#X obj 389 238 inlet reshape;
#X obj 373 454 outlet bphase;
#X obj 166 125 bng 12 50 50 0 empty \$0-guibang empty 17 7 0 10 -228856
-1 -1;
#X obj 166 139 vsl 12 50 0 1 0 0 empty empty empty 0 -9 0 10 -228856
-1 -1 0 1;
#X obj 122 370 tavg~;
#X obj 39 350 r \$0-BGUI;
#X obj 122 418 outlet;
#X connect 0 0 3 0;
#X connect 0 0 1 0;
#X connect 1 0 4 0;
#X connect 2 0 3 1;
#X connect 3 0 12 0;
#X connect 4 0 9 0;
#X connect 4 0 10 0;
#X connect 5 0 6 0;
#X connect 6 0 2 0;
#X connect 7 0 0 0;
#X connect 8 0 5 0;
#X connect 12 0 11 0;
#X connect 12 0 14 0;
#X connect 13 0 12 0;
#X coords 0 -1 1 1 85 100 1 100 100;
#X restore 48 567 pd LFO;
#N canvas 196 523 632 552 LFO 0;
#X obj 187 311 wrap~;
#X obj 373 398 rzero~ 1;
#X obj 389 324 line~;
#X obj 188 351 cyclone/triangle~ @lo 0 @hi 1;
#X obj 373 422 threshold~ 0 900;
#X obj 389 269 random 2;
#X msg 389 298 \$1 10;
#X obj 187 214 inlet~;
#X obj 373 454 outlet bphase;
#X obj 166 125 bng 12 50 50 0 empty \$0-guibang empty 17 7 0 10 -228856
-1 -1;
#X obj 166 139 vsl 12 50 0 1 0 0 empty empty empty 0 -9 0 10 -228856
-1 -1 0 1;
#X obj 122 370 tavg~;
#X obj 38 246 r \$0-MAIN-PLAY;
#X obj 39 283 r \$0-MAIN-STOP;
#X obj 39 350 r \$0-BGUI;
#X obj 122 418 outlet;
#X obj 389 238 r \$0-lb;
#X connect 0 0 3 0;
#X connect 0 0 1 0;
#X connect 1 0 4 0;
#X connect 2 0 3 1;
#X connect 3 0 11 0;
#X connect 4 0 8 0;
#X connect 4 0 9 0;
#X connect 5 0 6 0;
#X connect 6 0 2 0;
#X connect 7 0 0 0;
#X connect 11 0 10 0;
#X connect 11 0 15 0;
#X connect 12 0 11 0;
#X connect 14 0 11 0;
#X connect 16 0 5 0;
#X coords 0 -1 1 1 85 100 1 100 100;
#X restore 188 566 pd LFO;
#N canvas 196 523 632 552 LFO 0;
#X obj 187 311 wrap~;
#X obj 373 398 rzero~ 1;
#X obj 389 324 line~;
#X obj 188 351 cyclone/triangle~ @lo 0 @hi 1;
#X obj 373 422 threshold~ 0 900;
#X obj 389 269 random 2;
#X msg 389 298 \$1 10;
#X obj 187 214 inlet~;
#X obj 373 454 outlet bphase;
#X obj 166 125 bng 12 50 50 0 empty \$0-guibang empty 17 7 0 10 -228856
-1 -1;
#X obj 166 139 vsl 12 50 0 1 0 0 empty empty empty 0 -9 0 10 -228856
-1 -1 0 1;
#X obj 122 370 tavg~;
#X obj 38 246 r \$0-MAIN-PLAY;
#X obj 39 283 r \$0-MAIN-STOP;
#X obj 39 350 r \$0-BGUI;
#X obj 122 418 outlet;
#X obj 389 238 r \$0-lb;
#X connect 0 0 3 0;
#X connect 0 0 1 0;
#X connect 1 0 4 0;
#X connect 2 0 3 1;
#X connect 3 0 11 0;
#X connect 4 0 8 0;
#X connect 4 0 9 0;
#X connect 5 0 6 0;
#X connect 6 0 2 0;
#X connect 7 0 0 0;
#X connect 11 0 10 0;
#X connect 11 0 15 0;
#X connect 12 0 11 0;
#X connect 14 0 11 0;
#X connect 16 0 5 0;
#X coords 0 -1 1 1 85 100 1 100 100;
#X restore 289 566 pd LFO;
#X obj 506 622 s sim-chim;
#N canvas 315 124 753 550 CONF 0;
#X msg 283 158 line 0 \, bang;
#X obj 283 89 t b b;
#X msg 315 113 read conf.txt;
#X obj 283 44 r CONF;
#X obj 283 66 route load;
#X obj 315 134 text define \$0-CONF;
#X obj 283 179 text sequence \$0-CONF -g;
#X obj 283 212 print;
#X obj 19 36 loadbang;
#X obj 19 59 bng 15 250 50 0 empty empty empty 17 7 0 10 -262144 -1
-1;
#X obj 19 124 delay 1000;
#X text 16 16 Start sequence;
#X text 128 160 Chimeres settings;
#X msg 39 82 \; CONF load \;;
#X text 128 91 conf.txt;
#X msg 36 152 \; SETTINGS load;
#X obj 19 234 delay 1000;
#X obj 108 242 bng 15 250 50 0 empty empty empty 17 7 0 10 -262144
-1 -1;
#X obj 264 385 1;
#X msg 218 384 0;
#X obj 218 416 text get \$0-CONF;
#X obj 218 323 bng 15 250 50 0 empty empty empty 17 7 0 10 -262144
-1 -1;
#X obj 218 350 t b b;
#X text 268 347 get nb of chimeres;
#X obj 200 454 *;
#X obj 65 362 1;
#X obj 18 396 text get \$0-CONF;
#X obj 19 327 t b b;
#X msg 19 361 1;
#X obj 19 302 bng 15 250 50 0 empty empty empty 17 7 0 10 -262144 -1
-1;
#X obj 200 485 nbx 5 14 -1e+37 1e+37 0 0 empty empty empty 0 -8 0 10
-262144 -1 -1 30 256;
#X obj 19 259 t b b;
#X text 69 324 arms per chimeres;
#X obj 321 504 s NB-OF-ARMS;
#X obj 200 504 print NB-OF-ARMS;
#X connect 0 0 6 0;
#X connect 1 0 0 0;
#X connect 1 1 2 0;
#X connect 2 0 5 0;
#X connect 3 0 4 0;
#X connect 4 0 1 0;
#X connect 6 0 7 0;
#X connect 8 0 9 0;
#X connect 9 0 10 0;
#X connect 9 0 13 0;
#X connect 10 0 15 0;
#X connect 10 0 16 0;
#X connect 16 0 31 0;
#X connect 17 0 31 0;
#X connect 18 0 20 2;
#X connect 18 0 20 1;
#X connect 19 0 20 0;
#X connect 20 0 24 1;
#X connect 21 0 22 0;
#X connect 22 0 19 0;
#X connect 22 1 18 0;
#X connect 24 0 30 0;
#X connect 25 0 26 2;
#X connect 25 0 26 1;
#X connect 26 0 24 0;
#X connect 27 0 28 0;
#X connect 27 1 25 0;
#X connect 28 0 26 0;
#X connect 29 0 27 0;
#X connect 30 0 34 0;
#X connect 30 0 33 0;
#X connect 31 0 29 0;
#X connect 31 1 21 0;
#X restore 701 72 pd CONF;
#X obj 47 537 r~ \$0-S1;
#X obj 189 537 r~ \$0-S2;
#X obj 1508 174 r \$0-NEW;
#X obj 1041 46 r NB-OF-ARMS;
#X obj 952 66 nbx 3 12 -1e+37 1e+37 0 0 empty empty NB-OF-ARMS 0 -8
0 10 -262144 -1 -1 30 256;
#X obj 944 24 bng 15 250 50 0 empty empty empty 17 7 0 10 -262144 -1
-1;
#X obj 672 622 s sim-chim;
#X obj 842 622 s sim-chim;
#X obj 1506 119 loadbang;
#X obj 1506 144 s \$0-lb;
#X obj 1000 626 s sim-chim;
#X obj 1000 583 pack f 10;
#X obj 126 535 r \$0-B1;
#N canvas 857 171 658 602 ALIENMODE 0;
#X obj 171 115 bng 15 250 50 0 empty empty empty 17 7 0 10 -262144
-1 -1;
#X obj 267 148 r \$0-ALIEN-SPEED;
#X obj 171 197 bangs 0;
#X obj 171 27 r \$0-ALIEN-SHOT;
#X obj 53 63 == 1;
#X msg 54 171 0;
#X obj 171 169 f 60;
#X obj 53 88 sel 1;
#X msg 86 229 reset;
#X obj 54 29 r \$0-ALIEN-MODE;
#X msg 203 295 0;
#X obj 185 553 outlet;
#X obj 231 455 1;
#X obj 185 521 text get \$0-routing;
#X obj 145 284 bng 15 250 50 0 empty empty empty 17 7 0 10 -262144
-1 -1;
#X obj 126 417 nbx 5 14 -1e+37 1e+37 0 0 empty empty empty 0 -8 0 10
-262144 -1 -1 0 256;
#X obj 185 420 t b f b;
#X obj 185 486 f 1;
#X obj 185 382 cyclone/counter 2 0 29;
#X msg 203 322 set \$1;
#X msg 283 322 max \$1;
#X obj 194 122 - 0;
#X obj 291 80 t b f;
#X obj 393 57 r \$0-ALIEN-LENGTH;
#X obj 190 88 f 30;
#X obj 171 52 t b b b b;
#X msg 348 217 1;
#X obj 296 478 min 29;
#X obj 53 113 t b b;
#X obj 130 148 s \$0-ALIEN-SPEED-in;
#X msg 129 121 10;
#X connect 0 0 6 0;
#X connect 1 0 2 1;
#X connect 2 0 18 0;
#X connect 3 0 25 0;
#X connect 4 0 7 0;
#X connect 4 0 22 0;
#X connect 5 0 6 0;
#X connect 5 0 10 0;
#X connect 6 0 2 0;
#X connect 7 0 28 0;
#X connect 7 1 8 0;
#X connect 8 0 2 1;
#X connect 9 0 4 0;
#X connect 10 0 19 0;
#X connect 12 0 13 2;
#X connect 13 0 11 0;
#X connect 14 0 18 0;
#X connect 16 0 17 0;
#X connect 16 1 27 0;
#X connect 16 2 12 0;
#X connect 17 0 13 0;
#X connect 18 0 15 0;
#X connect 18 0 16 0;
#X connect 19 0 18 0;
#X connect 20 0 18 0;
#X connect 21 0 6 1;
#X connect 21 0 20 0;
#X connect 22 0 21 0;
#X connect 22 1 21 1;
#X connect 23 0 24 1;
#X connect 24 0 21 0;
#X connect 25 0 0 0;
#X connect 25 1 24 0;
#X connect 25 2 10 0;
#X connect 25 3 26 0;
#X connect 26 0 18 1;
#X connect 27 0 13 1;
#X connect 28 0 5 0;
#X connect 28 1 30 0;
#X connect 30 0 29 0;
#X restore 1000 392 pd ALIENMODE;
#X obj 1060 424 r \$0-ALIEN-SHOT;
#X obj 1060 466 f;
#X obj 1060 494 * 100;
#X obj 48 676 s \$0-LFO1;
#X obj 188 671 s \$0-LFO2;
#X obj 289 489 r~ \$0-S2;
#X obj 289 514 *~;
#X obj 356 494 r \$0-MAIN-MODULO;
#X obj 289 539 wrap~;
#X obj 288 672 s \$0-LFO3;
#X obj 1060 525 fade 50;
#N canvas 1 83 706 535 rdm 0;
#X obj 528 380 - 1;
#X obj 426 348 t b f, f 15;
#X obj 394 289 bng 15 250 50 0 empty empty empty 17 7 0 10 -262144
-1 -1;
#X obj 537 139 - 1;
#X obj 435 107 t b f, f 15;
#X obj 403 48 bng 15 250 50 0 empty empty empty 17 7 0 10 -262144 -1
-1;
#X obj 403 8 r \$0-rdm-proba;
#X obj 424 269 r \$0-rdm-multi;
#X obj 394 238 r \$0-new-tabs;
#X obj 433 28 r \$0-new-tabs;
#X obj 435 193 tabwrite \$0-proba;
#X obj 426 434 tabwrite \$0-multi;
#N canvas 1 83 450 250 (subpatch) 0;
#X array \$0-multi 10 float 3;
#A 0 2 11 6 9 4 8 3 12 7 5;
#X coords 0 30 8 0 100 100 1 0 0;
#X restore 115 100 graph;
#X obj 333 104 bng 15 250 50 0 \$0-rdm-multi empty R 5 9 2 10 -262144
-1 -1;
#X obj 100 102 vsl 15 95 0 1 0 0 empty empty factor 0 107 0 10 -228856
-1 -1 0 1;
#N canvas 1 83 488 287 (subpatch) 0;
#X array \$0-proba 8 float 3;
#A 0 3 2 5 7 4 1 0 6;
#X coords 0 8 8 0 100 100 1 0 0;
#X restore 230 100 graph;
#X obj 333 123 bng 15 250 50 0 \$0-rdm-proba empty R 5 9 2 10 -262144
-1 -1;
#X obj 215 102 vsl 15 95 0 1 0 0 empty empty Seuil 0 107 0 10 -228856
-1 -1 0 1;
#X obj 100 47 inlet;
#X obj 215 47 inlet;
#X obj 305 47 inlet;
#X obj 403 76 uzi 8;
#X obj 513 293 r \$0-MAIN-MODULO;
#X obj 513 318 / 2;
#X obj 394 317 uzi 10;
#X obj 426 382 cyclone/urn 16;
#X obj 435 140 cyclone/urn 8;
#X connect 0 0 11 1;
#X connect 1 0 25 0;
#X connect 1 1 0 0;
#X connect 2 0 24 0;
#X connect 3 0 10 1;
#X connect 4 0 26 0;
#X connect 4 1 3 0;
#X connect 5 0 21 0;
#X connect 6 0 5 0;
#X connect 7 0 2 0;
#X connect 8 0 2 0;
#X connect 9 0 5 0;
#X connect 18 0 14 0;
#X connect 19 0 17 0;
#X connect 20 0 13 0;
#X connect 20 0 16 0;
#X connect 21 2 4 0;
#X connect 22 0 23 0;
#X connect 23 0 25 1;
#X connect 24 2 1 0;
#X connect 25 0 11 0;
#X connect 26 0 10 0;
#X coords 0 -1 1 1 250 120 1 100 100;
#X restore 38 339 pd rdm multi-proba;
#X obj 1102 446 r \$0-LFO2;
#X obj 281 307 r \$0-NEW;
#X obj 159 289 r \$0-LFO3;
#X obj 38 289 r \$0-LFO2;
#X obj 356 47 nbx 3 12 -1e+37 1e+37 0 0 empty empty NB-OF-ARMS 0 -8
0 10 -262144 -1 -1 30 256;
#X obj 66 36 r \$0-LFO3;
#X obj 66 61 * 100;
#N canvas 360 141 1342 894 PROCESS 0;
#X obj 690 56 inlet nb-of-arms;
#N canvas 558 250 875 507 live-routing 0;
#X obj 144 56 inlet;
#X msg 162 128 0;
#X obj 144 436 outlet;
#X obj 190 308 1;
#X obj 144 404 text get \$0-routing;
#X obj 104 117 bng 15 250 50 0 empty empty empty 17 7 0 10 -262144
-1 -1;
#X obj 162 102 r \$0-MAIN-STOP;
#X obj 279 56 inlet seq-modulo;
#X msg 162 155 jam \$1;
#X msg 279 155 max \$1;
#X obj 279 128 - 1;
#X obj 144 215 cyclone/counter 0 0 29;
#X obj 85 250 nbx 5 14 -1e+37 1e+37 0 0 empty empty empty 0 -8 0 10
-262144 -1 -1 0 256;
#X obj 144 273 t b f b;
#X obj 144 369 f 0;
#X connect 0 0 11 0;
#X connect 1 0 8 0;
#X connect 3 0 4 2;
#X connect 4 0 2 0;
#X connect 5 0 11 0;
#X connect 6 0 1 0;
#X connect 7 0 10 0;
#X connect 8 0 11 0;
#X connect 9 0 11 0;
#X connect 10 0 9 0;
#X connect 11 0 12 0;
#X connect 11 0 13 0;
#X connect 13 0 14 0;
#X connect 13 1 4 1;
#X connect 13 2 3 0;
#X connect 14 0 4 0;
#X restore 558 286 pd live-routing;
#X obj 558 682 pack f f;
#X obj 611 652 * 100;
#X obj 611 623 f;
#N canvas 424 226 404 474 arms-ids-by-groups 0;
#X obj 153 70 inlet;
#X obj 153 103 t b f;
#X obj 153 252 outlet;
#X obj 75 89 nbx 5 14 -1e+37 1e+37 0 0 empty empty empty 0 -8 0 10
-262144 -1 -1 0 256;
#X obj 153 223 text get \$0-arms;
#X obj 153 143 f;
#X obj 229 70 inlet group-select;
#X connect 0 0 1 0;
#X connect 1 0 5 0;
#X connect 1 1 4 1;
#X connect 3 0 1 0;
#X connect 4 0 2 0;
#X connect 5 0 4 0;
#X connect 6 0 5 1;
#X restore 558 589 pd arms-ids-by-groups;
#X msg 613 556 0;
#X obj 558 528 t f b b;
#X obj 558 557 % 10;
#N canvas 417 294 584 432 multiples-ids 0;
#X obj 40 16 inlet;
#X obj 69 265 uzi 4;
#X obj 101 295 - 1;
#X obj 121 183 int;
#X obj 94 214 sel 0;
#X msg 94 239 1;
#X obj 101 320 +;
#X obj 69 55 t b f f;
#X obj 101 392 outlet;
#X obj 226 31 inlet amp;
#X obj 121 122 tabread \$0-multi;
#X obj 121 157 * 1;
#X obj 101 354 % 30;
#X obj 186 225 nbx 5 14 -1e+37 1e+37 0 0 empty empty empty 0 -8 0 10
-262144 -1 -1 0 256;
#X obj 137 85 % 8;
#X connect 0 0 7 0;
#X connect 1 2 2 0;
#X connect 2 0 6 0;
#X connect 3 0 4 0;
#X connect 3 0 13 0;
#X connect 4 0 5 0;
#X connect 4 1 1 1;
#X connect 5 0 1 1;
#X connect 6 0 12 0;
#X connect 7 0 1 0;
#X connect 7 1 14 0;
#X connect 7 2 6 1;
#X connect 9 0 11 1;
#X connect 10 0 11 0;
#X connect 11 0 3 0;
#X connect 12 0 8 0;
#X connect 14 0 10 0;
#X restore 558 446 pd multiples-ids;
#X obj 724 682 pack f f;
#X obj 777 652 * 100;
#X obj 777 623 f;
#N canvas 424 226 404 474 arms-ids-by-groups 0;
#X obj 153 70 inlet;
#X obj 153 103 t b f;
#X obj 153 252 outlet;
#X obj 75 89 nbx 5 14 -1e+37 1e+37 0 0 empty empty empty 0 -8 0 10
-262144 -1 -1 0 256;
#X obj 153 223 text get \$0-arms;
#X obj 153 143 f;
#X obj 229 70 inlet group-select;
#X connect 0 0 1 0;
#X connect 1 0 5 0;
#X connect 1 1 4 1;
#X connect 3 0 1 0;
#X connect 4 0 2 0;
#X connect 5 0 4 0;
#X connect 6 0 5 1;
#X restore 723 589 pd arms-ids-by-groups;
#X obj 723 528 t f b b;
#X obj 894 682 pack f f;
#X obj 947 652 * 100;
#X obj 947 623 f;
#N canvas 424 226 404 474 arms-ids-by-groups 0;
#X obj 153 70 inlet;
#X obj 153 103 t b f;
#X obj 153 252 outlet;
#X obj 75 89 nbx 5 14 -1e+37 1e+37 0 0 empty empty empty 0 -8 0 10
-262144 -1 -1 0 256;
#X obj 153 223 text get \$0-arms;
#X obj 153 143 f;
#X obj 229 70 inlet group-select;
#X connect 0 0 1 0;
#X connect 1 0 5 0;
#X connect 1 1 4 1;
#X connect 3 0 1 0;
#X connect 4 0 2 0;
#X connect 5 0 4 0;
#X connect 6 0 5 1;
#X restore 893 589 pd arms-ids-by-groups;
#X obj 893 528 t f b b;
#X obj 723 557 % 10;
#X obj 893 557 % 10;
#X msg 768 556 1;
#X msg 938 556 2;
#X obj 558 718 flow;
#X obj 724 718 flow;
#X obj 894 718 flow;
#X obj 646 387 r \$0-B2;
#X obj 669 227 s \$0-MAIN-MODULO;
#X obj 813 623 r \$0-LFO2;
#X obj 1006 620 r \$0-LFO2;
#X obj 1006 645 inverse;
#X obj 656 622 r \$0-LFO3;
#X obj 656 677 *;
#X obj 674 648 r \$0-LFO1;
#N canvas 1 83 481 425 ROBOTSHIFT 0;
#X obj 118 82 inlet;
#X obj 161 203 nbx 5 14 -1e+37 1e+37 0 0 empty empty empty 0 -8 0 10
-262144 -1 -1 0 256;
#X obj 161 222 * 6;
#X obj 143 251 +;
#X obj 161 141 bng 15 250 50 0 empty empty empty 17 7 0 10 -262144
-1 -1;
#X obj 161 175 count 5;
#X obj 198 141 r \$0-NEW;
#X obj 143 276 outlet;
#X obj 161 112 inlet;
#X connect 0 0 3 0;
#X connect 1 0 2 0;
#X connect 2 0 3 1;
#X connect 3 0 7 0;
#X connect 4 0 5 0;
#X connect 5 0 1 0;
#X connect 6 0 5 1;
#X connect 8 0 4 0;
#X restore 558 412 pd ROBOTSHIFT;
#N canvas 1 83 1127 571 RDMMODULO 0;
#X obj 18 44 inlet;
#X obj 51 144 bng 15 250 50 0 empty empty empty 17 7 0 10 -262144 -1
-1;
#X obj 51 170 random 30;
#X obj 51 195 max 3;
#X obj 112 201 nbx 5 14 -1e+37 1e+37 0 0 empty empty empty 0 -8 0 10
-262144 -1 -1 4 256;
#X obj 120 124 r \$0-lb;
#X obj 118 98 r \$0-NEW;
#X obj 51 220 outlet;
#X obj 242 143 inlet;
#X connect 0 0 1 0;
#X connect 1 0 2 0;
#X connect 2 0 3 0;
#X connect 3 0 4 0;
#X connect 3 0 7 0;
#X connect 5 0 1 0;
#X connect 6 0 1 0;
#X connect 8 0 2 1;
#X restore 660 198 pd RDMMODULO;
#X obj 660 170 r \$0-B1;
#X obj 667 417 r \$0-LFO2;
#N canvas 80 130 485 407 PROBA 0;
#X obj 40 16 inlet;
#X obj 78 308 outlet;
#X obj 121 122 tabread \$0-proba;
#X obj 76 249 spigot;
#X obj 71 54 t f f;
#X obj 260 42 inlet seuil;
#X obj 115 220 < 1;
#X obj 137 85 % 8;
#X obj 121 148 / 8;
#X connect 0 0 4 0;
#X connect 2 0 8 0;
#X connect 3 0 1 0;
#X connect 4 0 3 0;
#X connect 4 1 7 0;
#X connect 5 0 6 1;
#X connect 6 0 3 1;
#X connect 7 0 2 0;
#X connect 8 0 6 0;
#X restore 628 358 pd PROBA;
#X obj 681 285 r \$0-LFO3;
#X obj 928 442 r \$0-B2;
#N canvas 1 83 481 425 ROBOTSHIFT 0;
#X obj 118 82 inlet;
#X obj 161 203 nbx 5 14 -1e+37 1e+37 0 0 empty empty empty 0 -8 0 10
-262144 -1 -1 0 256;
#X obj 161 222 * 6;
#X obj 143 251 +;
#X obj 161 141 bng 15 250 50 0 empty empty empty 17 7 0 10 -262144
-1 -1;
#X obj 161 175 count 5;
#X obj 198 141 r \$0-NEW;
#X obj 143 276 outlet;
#X obj 161 112 inlet;
#X connect 0 0 3 0;
#X connect 1 0 2 0;
#X connect 2 0 3 1;
#X connect 3 0 7 0;
#X connect 4 0 5 0;
#X connect 5 0 1 0;
#X connect 6 0 5 1;
#X connect 8 0 4 0;
#X restore 893 496 pd ROBOTSHIFT;
#X obj 928 472 bng 15 250 50 0 empty empty empty 17 7 0 10 -262144
-1 -1;
#X obj 363 635 cyclone/urn 3;
#X obj 363 660 sel 0 1 2;
#X msg 363 685 1;
#X msg 403 685 1;
#X msg 443 685 1;
#X obj 468 645 bng 15 250 50 0 empty empty empty 17 7 0 10 -262144
-1 -1;
#X obj 363 541 r \$0-B2;
#X obj 314 514 r \$0-MAIN-PLAY;
#X msg 474 615 clear;
#X obj 363 583 count 4;
#X obj 756 167 r NB-OF-ARMS;
#X obj 737 143 nbx 3 12 -1e+37 1e+37 0 0 empty empty NB-OF-ARMS 0 -8
0 10 -262144 -1 -1 0 256;
#X obj 737 101 bng 15 250 50 0 empty empty empty 17 7 0 10 -262144
-1 -1;
#X text 687 479 groupe bass et mid;
#X obj 558 481 cyclone/cycle 2;
#X obj 558 256 bng 15 250 50 0 empty empty empty 17 7 0 10 -262144
-1 -1;
#X obj 457 160 inlet bangstep \$0-B3;
#X text 1013 493 groupe high;
#X obj 555 759 outlet sim-chim;
#X obj 721 759 outlet sim-chim;
#X obj 891 759 outlet sim-chim;
#X text 694 358 < \$0-proba;
#X connect 0 0 36 1;
#X connect 1 0 39 0;
#X connect 1 0 42 0;
#X connect 2 0 24 0;
#X connect 3 0 2 1;
#X connect 4 0 3 0;
#X connect 5 0 2 0;
#X connect 6 0 5 1;
#X connect 7 0 8 0;
#X connect 7 1 6 0;
#X connect 7 2 4 0;
#X connect 8 0 5 0;
#X connect 9 0 58 0;
#X connect 10 0 25 0;
#X connect 11 0 10 1;
#X connect 12 0 11 0;
#X connect 13 0 10 0;
#X connect 14 0 20 0;
#X connect 14 1 22 0;
#X connect 14 2 12 0;
#X connect 15 0 26 0;
#X connect 16 0 15 1;
#X connect 17 0 16 0;
#X connect 18 0 15 0;
#X connect 19 0 21 0;
#X connect 19 1 23 0;
#X connect 19 2 17 0;
#X connect 20 0 13 0;
#X connect 21 0 18 0;
#X connect 22 0 13 1;
#X connect 23 0 18 1;
#X connect 24 0 62 0;
#X connect 25 0 63 0;
#X connect 26 0 64 0;
#X connect 27 0 35 1;
#X connect 29 0 12 1;
#X connect 30 0 31 0;
#X connect 31 0 17 1;
#X connect 32 0 33 0;
#X connect 33 0 4 1;
#X connect 34 0 33 1;
#X connect 35 0 9 0;
#X connect 36 0 28 0;
#X connect 36 0 1 1;
#X connect 37 0 36 0;
#X connect 38 0 9 1;
#X connect 39 0 35 0;
#X connect 40 0 39 1;
#X connect 41 0 42 1;
#X connect 41 0 43 0;
#X connect 42 0 19 0;
#X connect 44 0 45 0;
#X connect 44 1 49 0;
#X connect 44 1 52 0;
#X connect 45 0 46 0;
#X connect 45 1 47 0;
#X connect 45 2 48 0;
#X connect 46 0 24 1;
#X connect 47 0 25 1;
#X connect 48 0 26 1;
#X connect 50 0 53 0;
#X connect 51 0 44 0;
#X connect 52 0 44 0;
#X connect 53 2 44 0;
#X connect 54 0 36 1;
#X connect 55 0 36 1;
#X connect 56 0 55 0;
#X connect 58 0 7 0;
#X connect 58 1 14 0;
#X connect 59 0 1 0;
#X connect 60 0 59 0;
#X restore 648 584 pd PROCESS;
#X obj 428 27 r NB-OF-ARMS;
#X obj 634 564 bng 15 250 50 0 empty empty empty 17 7 0 10 -262144
-1 -1;
#X obj 634 535 r \$0-B3;
#X text 452 70 load auto d'apres ton fichier conf;
#X text 423 101 2 - specififier une duree;
#X text 423 119 3 - bang NEW;
#X text 423 139 4 - Toggle ON;
#X text 454 159 OFF auto apres Xmn;
#X text 424 179 Possible de jouer avec le mode ALIEN pdt ou en dehors
du morceau...;
#X obj 1001 336 bng 15 250 50 0 empty empty empty 17 7 0 10 -262144
-1 -1;
#X obj 1001 306 r \$0-B1;
#X obj 1001 360 s \$0-ALIEN-SHOT-in;
#X text 310 346 valeurs \$0-multi * factor =;
#X text 510 346 ombre de pattes tappant en meme temps;
#X text 325 364 le factor est animé par LFO2;
#X text 310 396 valeurs \$0-proba * Seuil =;
#X text 510 396 chance de laisser passer le bang (\$0-B1);
#X text 508 414 le factor est animé par LFO3;
#X text 325 414 si valeur < seuil = shot;
#X text 423 51 1 - Les NB-OF-ARMS sont bien chargées ? (sinon saisir
30);
#X obj 407 103 cnv 15 10 60 empty empty empty 20 12 0 14 -4032 -66577
0;
#X obj 1488 377 declare -path abs;
#X text 945 94 [sim-chims arm-samples];
#X text 942 122 [audio-master];
#X connect 0 0 2 0;
#X connect 0 1 1 0;
#X connect 0 2 3 0;
#X connect 0 3 4 0;
#X connect 0 4 5 0;
#X connect 7 0 6 0;
#X connect 9 0 10 1;
#X connect 10 0 11 0;
#X connect 13 0 35 0;
#X connect 14 0 36 0;
#X connect 15 0 41 0;
#X connect 18 0 13 0;
#X connect 19 0 14 0;
#X connect 20 0 10 0;
#X connect 21 0 22 0;
#X connect 23 0 22 0;
#X connect 26 0 27 0;
#X connect 29 0 28 0;
#X connect 30 0 13 1;
#X connect 31 0 29 0;
#X connect 32 0 33 0;
#X connect 33 0 34 0;
#X connect 34 0 42 0;
#X connect 37 0 38 0;
#X connect 38 0 40 0;
#X connect 39 0 38 1;
#X connect 40 0 15 0;
#X connect 42 0 29 1;
#X connect 44 0 33 1;
#X connect 45 0 43 2;
#X connect 46 0 43 1;
#X connect 47 0 43 0;
#X connect 48 0 51 1;
#X connect 49 0 50 0;
#X connect 50 0 0 0;
#X connect 51 0 16 0;
#X connect 51 1 24 0;
#X connect 51 2 25 0;
#X connect 52 0 48 0;
#X connect 53 0 51 0;
#X connect 54 0 53 0;
#X connect 61 0 63 0;
#X connect 62 0 61 0;
